<svg version="1" xmlns="http://www.w3.org/2000/svg" width="1821.333" height="1821.333" viewBox="0 0 1366.000000 1366.000000"><path d="M1079 217.8c-1.4.1-4.5.7-7 1.3-2.5.6-5.2 1.2-6 1.4-2.4.5-20.9 5.4-28.5 7.6-21.6 6.2-50.2 17-202.5 76.4-30.5 12-60 23.4-65.5 25.5-9.3 3.5-63.6 24.7-68 26.5-2.6 1.1-9.5 3.7-17.5 6.8-6.3 2.4-57.1 22.2-94.5 36.9-9.9 3.9-25.4 10-34.5 13.5-9.1 3.6-22.6 8.8-30 11.8-7.4 2.9-24.7 9.6-38.5 15-13.7 5.3-25.9 10.1-27 10.6-1.1.5-11.9 4.7-24 9.4-35.7 13.9-44.4 17.8-60.5 27-3.6 2.1-8.2 4.7-10.2 5.9-11.8 6.7-21.3 15.8-25.8 24.6-4.2 8.1-6.3 23.5-4.5 32 .3 1.4.8 3.8 1.1 5.5 1.1 6.3 5.7 17.8 9.7 24.6 2.3 3.9 4.7 7.8 5.2 8.7 1.6 2.8 10.4 14.1 18.4 23.7 9.3 11.2 153 155.6 159 159.7l4.4 3.1-4.2 3.5c-2.3 1.9-39.7 38.9-83 82.2-89.1 89.1-85.5 85-85.5 99.5-.1 6.5.4 8.9 2.4 13 5.5 11 15.9 17.5 28.4 17.8 5.5.1 28.6-1 37.6-1.8 1.9-.2 9.5-.6 16.9-1 7.4-.4 14.1-.8 15-1 .9-.1 7.2-.6 14.1-1 6.9-.3 14.5-.8 17-1 2.5-.2 9.2-.7 15-1 5.8-.4 12.5-.8 15-1 2.5-.1 9-.6 14.5-.9 5.5-.4 12.5-.9 15.5-1.1 3-.2 10.5-.6 16.5-1 6.1-.3 13-.7 15.5-.9 2.5-.2 9.7-.7 16-1 6.3-.4 14.2-.9 17.5-1.1 3.3-.3 10.1-.7 15-1 16.3-1 23.9-1.5 29-2 2.8-.2 9.7-.7 15.5-1.1 5.8-.3 11.6-.8 13-.9 1.4-.2 8.2-.7 15.1-1 19.2-1.1 20.8-.5 37 15 30.8 29.4 49.3 38.4 70.7 34.6 11.9-2.1 25.5-10.1 34.7-20.2 5-5.5 14-17.6 16.4-22.1 9.5-17.4 21-41.3 27.7-57.6 4.2-9.9 46-117.5 94.6-243.2 9.8-25.6 19-49.2 20.3-52.5 9.7-24.9 12.9-33.1 30-77.5 1.8-4.7 6-15.5 9.3-24 5.3-13.6 29.3-75.5 38.9-100.5 29.9-77.3 43.4-112.3 47.5-123 2.7-7.2 5.4-13.8 5.9-14.7.5-1 .9-9.1.9-18.2v-16.3l-3.5-7.1c-6.1-12.2-18.3-22.5-29.1-24.7-7.1-1.4-21.1-2.4-26.4-1.7zm-8 67.1c0 1-26.4 70-29 75.6-.5 1.1-2 5-3.4 8.7-1.4 3.8-3.8 9.8-5.2 13.5-1.4 3.8-2.9 7.7-3.4 8.8-.5 1.1-7 17.7-14.5 37-7.4 19.2-13.9 35.9-14.4 37-.5 1.1-4.1 10.1-7.9 20-39.7 102.1-49.5 127.4-50.7 130-.7 1.6-4.7 12-9 23-4.2 11-8.5 21.9-9.6 24.2-1 2.4-1.9 4.6-1.9 4.9 0 .3-2.4 6.7-5.4 14.3-3 7.5-13.5 34.3-23.4 59.6-9.9 25.3-23.4 59.7-30 76.5-6.6 16.8-13.7 34.8-15.7 40-7.7 19.7-8.4 21.6-9.6 24.5-.7 1.6-1.3 3.2-1.4 3.5-.4 1.1-1.9 4.7-3.6 8.7-1.1 2.3-1.9 4.4-1.9 4.7 0 .8-7.7 17-15.7 33.1-7.8 15.7-12.3 23.4-13.6 23.5-1.5 0-14.7-12.9-72.7-71.1-53-53.3-60.1-60.1-65.4-62.5-9.4-4.3-20.4-3.6-29.4 1.8-9.4 5.8-14.5 14.5-14.5 25.3-.1 13.9 1.6 16.6 25.1 40.4 10.5 10.7 18.9 19.8 18.5 20.2-.5.4-5.7 1-11.8 1.4-6 .3-13.7.8-17 1-3.3.2-9.8.7-14.5 1-4.7.3-11.9.8-16 1-7.3.5-13.3.9-31 2-4.7.3-10.7.8-13.5 1-5.4.4-21 1.4-44.5 2.9-5.2.3-12.2.8-15.5 1.1-3.3.2-10.5.7-15.9 1.1l-10 .6 3.4-3.8c1.8-2.1 99.3-99.8 216.6-217.1 195.7-195.8 213.5-213.9 216.5-219.8 2.6-5.4 3.1-7.6 3.1-13.4-.1-17.7-14.1-31.6-31.2-31.2-2.5 0-5.6.3-7 .6-8.8 1.7-9.2 2.1-156 149C640.1 666.4 575.5 731 575.4 731c-.1 0-3.3-3.2-7.1-7.2-3.7-3.9-34.7-35.1-68.9-69.2-34.1-34.2-66.8-67.3-72.5-73.6-5.7-6.3-11.3-12.4-12.4-13.6-2-2.2-8.5-9.7-14.5-16.7-1.8-2.1-3.1-3.9-2.9-4.1 4.8-3.9 62.8-28.1 120.4-50 6.6-2.6 12.9-5 14-5.5 2.2-1 5.4-2.2 7-2.7.6-.2 25.8-10 56-21.9 66.6-26.1 94.4-37 139.5-54.5 6.9-2.7 13.9-5.5 15.5-6.1 1.7-.7 3.2-1.3 3.5-1.3.7-.2 17.1-6.6 19.5-7.7 1.1-.5 22.9-9 48.5-19 25.6-9.9 57.5-22.4 71-27.6 13.5-5.3 33.5-13.1 44.5-17.3 11-4.3 29.9-11.7 42-16.5 12.1-4.7 22.5-8.7 23-8.9.6-.2 2.4-.8 4-1.5 14.9-6 52.2-19 62-21.5 1.7-.5 3.5-.3 3.5.3z"/><path d="M389.7 736c-3.1 1-7.4 3-9.5 4.6-7.2 5.4-138.3 137.6-143.6 144.8-10.4 14.3-10.6 14.7-10.6 20.9 0 10.9 8.6 24.4 18.5 29.1 5 2.4 12.8 3.5 18 2.5 10.9-2 10-1.2 88.1-79.3 80-80 78.7-78.4 79.7-90 1.3-13.5-7.2-27.4-19.8-32.4-5.3-2.2-14.5-2.3-20.8-.2zM507 1050.4c-1.9.7-4.7 1.8-6.2 2.4-6.6 2.7-50.5 47.3-54.6 55.5-3.1 6.3-3.5 8.1-3.6 16.2 0 9.8 3.3 15.7 12.9 23.1 6.8 5.3 9.3 6.1 18.6 5.9 8-.1 9-.3 14-3.5 8.9-5.7 50.1-46.3 54.4-53.7 12.4-21-1.7-46.6-25.9-47.1-3.3-.1-7.7.4-9.6 1.2z"/></svg>