<?xml version="1.0" encoding="UTF-8"?>
<svg width="160px" height="32px" viewBox="0 0 160 32" version="1.1" xmlns="http://www.w3.org/2000/svg" xmlns:xlink="http://www.w3.org/1999/xlink">
    <!-- Generator: Sketch 47.1 (45422) - http://www.bohemiancoding.com/sketch -->
    <title>Icons/Logo</title>
    <desc>Created with Sketch.</desc>
    <defs></defs>
    <g id="Symbols" stroke="none" stroke-width="1" fill="none" fill-rule="evenodd">
        <g id="Icons/Logo">
            <g id="bestcoins-logo" transform="translate(-1.000000, 0.000000)">
                <g id="Group" transform="translate(31.000000, 4.000000)" fill-rule="nonzero" fill="#673AB7">
                    <path d="M16.4181818,15.5320755 C16.4181818,16.709434 16.2377622,17.8415094 15.8318182,18.8377358 C15.4258741,19.8792453 14.8846154,20.7396226 14.208042,21.509434 C13.5314685,22.2792453 12.7195804,22.8679245 11.7723776,23.2754717 C10.8251748,23.6830189 9.83286713,23.909434 8.79545455,23.909434 C7.80314685,23.909434 6.90104895,23.7283019 6.08916084,23.3660377 C5.27727273,23.0037736 4.51048951,22.5056604 3.92412587,21.8264151 L3.92412587,23.5471698 L0,23.5471698 L0,0.271698113 L4.10454545,0.271698113 L4.14965035,8.96603774 C4.73601399,8.37735849 5.45769231,7.87924528 6.26958042,7.56226415 C7.08146853,7.24528302 7.93846154,7.06415094 8.88566434,7.06415094 C9.92307692,7.06415094 10.9153846,7.29056604 11.8625874,7.69811321 C12.7646853,8.10566038 13.5765734,8.69433962 14.2982517,9.46415094 C14.9748252,10.2339623 15.5160839,11.0943396 15.922028,12.1358491 C16.1926573,13.2226415 16.4181818,14.354717 16.4181818,15.5320755 Z M12.2685315,15.5773585 C12.2685315,14.9433962 12.1783217,14.309434 11.9527972,13.7660377 C11.7272727,13.2226415 11.4566434,12.7245283 11.0506993,12.3169811 C10.6898601,11.909434 10.2388112,11.5924528 9.74265734,11.3660377 C9.2465035,11.1396226 8.70524476,11.0037736 8.16398601,11.0037736 C7.62272727,11.0037736 7.08146853,11.1396226 6.58531469,11.3660377 C6.08916084,11.5924528 5.63811189,11.909434 5.27727273,12.3622642 C4.91643357,12.8150943 4.6006993,13.2679245 4.37517483,13.8113208 C4.14965035,14.354717 4.05944056,14.9886792 4.05944056,15.6226415 C4.05944056,16.2566038 4.14965035,16.845283 4.37517483,17.3886792 C4.6006993,17.9320755 4.87132867,18.4301887 5.27727273,18.8377358 C5.63811189,19.245283 6.08916084,19.5622642 6.58531469,19.7886792 C7.08146853,20.0150943 7.62272727,20.1509434 8.16398601,20.1509434 C8.70524476,20.1509434 9.2465035,20.0150943 9.74265734,19.7886792 C10.2388112,19.5622642 10.6898601,19.245283 11.0506993,18.8377358 C11.4115385,18.4301887 11.7272727,17.9773585 11.9527972,17.3886792 C12.1783217,16.8 12.2685315,16.2113208 12.2685315,15.5773585 Z" id="Shape"></path>
                    <path d="M21.1993007,17.1169811 C21.4699301,18.1132075 21.9660839,18.8830189 22.6877622,19.4716981 C23.4094406,20.0150943 24.2664336,20.3320755 25.2136364,20.3320755 C25.8902098,20.3320755 26.5667832,20.1962264 27.1531469,19.8792453 C27.7846154,19.5622642 28.2356643,19.109434 28.5965035,18.4754717 L32.9716783,18.4754717 C32.4755245,20.1056604 31.5734266,21.4641509 30.2653846,22.4603774 C28.9573427,23.4566038 27.2433566,23.954717 25.2587413,23.954717 C24.1311189,23.954717 23.0937063,23.7283019 22.1013986,23.3207547 C21.1090909,22.8679245 20.2520979,22.2792453 19.4853147,21.509434 C18.7185315,20.7396226 18.1321678,19.8792453 17.7262238,18.8377358 C17.2751748,17.7962264 17.0947552,16.709434 17.0947552,15.5773585 C17.0947552,14.4 17.3202797,13.3132075 17.7262238,12.2716981 C18.1772727,11.2301887 18.7636364,10.3245283 19.4853147,9.6 C20.2520979,8.83018868 21.1090909,8.24150943 22.1013986,7.78867925 C23.0937063,7.33584906 24.1762238,7.10943396 25.2587413,7.10943396 C26.4314685,7.10943396 27.5590909,7.33584906 28.5965035,7.78867925 C29.6339161,8.24150943 30.536014,8.8754717 31.3027972,9.73584906 C32.0695804,10.5962264 32.6108392,11.6377358 32.9716783,12.9056604 C33.3325175,14.1735849 33.4678322,15.5773585 33.3325175,17.1622642 L21.1993007,17.1622642 L21.1993007,17.1169811 Z M29.227972,13.7660377 C28.9573427,12.8150943 28.5062937,12.090566 27.7846154,11.5471698 C27.0629371,11.0037736 26.2059441,10.7320755 25.2136364,10.7320755 C24.2664336,10.7320755 23.4545455,11.0037736 22.7328671,11.5471698 C22.0111888,12.090566 21.515035,12.8603774 21.2444056,13.7660377 L29.227972,13.7660377 Z" id="Shape"></path>
                    <path d="M48.4426573,18.5207547 C48.4426573,19.3358491 48.2622378,20.0603774 47.9013986,20.6943396 C47.5405594,21.3735849 47.0444056,21.9169811 46.458042,22.4150943 C45.8265734,22.9132075 45.1048951,23.2754717 44.2479021,23.5471698 C43.3909091,23.8188679 42.4437063,23.954717 41.4513986,23.954717 C40.413986,23.954717 39.5118881,23.8188679 38.6097902,23.5471698 C37.7527972,23.2754717 36.986014,22.9132075 36.3094406,22.4150943 C35.6328671,21.9169811 35.0916084,21.3283019 34.6856643,20.6490566 C34.2797203,19.9698113 33.963986,19.2 33.8737762,18.2943396 L38.0685315,18.2943396 C38.2038462,18.6566038 38.4293706,18.9283019 38.6548951,19.154717 C38.9255245,19.3811321 39.1961538,19.5622642 39.5118881,19.7433962 C39.8276224,19.8792453 40.1433566,20.0150943 40.5041958,20.0603774 C40.865035,20.1056604 41.1807692,20.1509434 41.4965035,20.1509434 C42.3083916,20.1509434 43.0300699,20.0150943 43.5713287,19.7886792 C44.1125874,19.5622642 44.3832168,19.2 44.3832168,18.7018868 C44.3832168,18.4754717 44.3381119,18.2943396 44.2479021,18.1132075 C44.1576923,17.9320755 43.9772727,17.7962264 43.7517483,17.6603774 C43.4811189,17.5245283 43.1653846,17.4339623 42.7143357,17.2981132 C42.2632867,17.1622642 41.722028,17.0716981 41.0003497,16.9811321 C40.2786713,16.890566 39.5118881,16.754717 38.7451049,16.5735849 C37.9783217,16.3924528 37.2566434,16.1207547 36.5800699,15.7584906 C35.9034965,15.3962264 35.3622378,14.9433962 34.9562937,14.354717 C34.5503497,13.7660377 34.3248252,13.0415094 34.3248252,12.1358491 C34.3248252,11.5018868 34.4601399,10.8679245 34.7307692,10.2792453 C35.0013986,9.64528302 35.4524476,9.10188679 35.9937063,8.60377358 C36.534965,8.10566038 37.2566434,7.74339623 38.1136364,7.42641509 C38.9706294,7.10943396 40.008042,6.97358491 41.1356643,6.97358491 C42.0377622,6.97358491 42.8947552,7.10943396 43.7066434,7.33584906 C44.4734266,7.56226415 45.1951049,7.9245283 45.7814685,8.33207547 C46.3678322,8.78490566 46.9090909,9.28301887 47.2699301,9.91698113 C47.6758741,10.5509434 47.9013986,11.2301887 48.0367133,12 L43.7968531,12 C43.6615385,11.6377358 43.3909091,11.3207547 42.9398601,11.0490566 C42.4888112,10.7773585 41.9024476,10.6415094 41.1356643,10.6415094 C40.1884615,10.6415094 39.5118881,10.7773585 39.0608392,11.0490566 C38.6548951,11.3207547 38.4293706,11.6377358 38.4293706,11.909434 C38.4293706,12.3169811 38.7,12.6339623 39.2863636,12.8150943 C39.8727273,12.9962264 40.6395105,13.1773585 41.6318182,13.3584906 C42.6241259,13.5396226 43.5262238,13.7207547 44.3832168,13.9471698 C45.2402098,14.1735849 45.9167832,14.445283 46.5482517,14.8075472 C47.1346154,15.1698113 47.6307692,15.6226415 47.9465035,16.2113208 C48.2622378,16.9358491 48.4426573,17.6603774 48.4426573,18.5207547 Z" id="Shape"></path>
                    <path d="M57.5538462,23.5471698 C56.3811189,23.6830189 55.3437063,23.5924528 54.4416084,23.3207547 C53.5395105,23.0490566 52.8178322,22.5962264 52.1863636,22.0075472 C51.6,21.4188679 51.148951,20.6490566 50.8332168,19.7886792 C50.5174825,18.8830189 50.3821678,17.8867925 50.3821678,16.8 L50.3821678,11.1396226 L48.4426573,11.1396226 L48.4426573,7.47169811 L50.3821678,7.47169811 L50.3821678,3.39622642 L54.4867133,3.39622642 L54.4867133,7.47169811 L57.3734266,7.47169811 L57.3734266,11.1396226 L54.4867133,11.1396226 L54.4867133,16.845283 C54.4867133,17.9773585 54.7573427,18.7471698 55.2534965,19.2 C55.7496503,19.6528302 56.5164336,19.8792453 57.5538462,19.7886792 L57.5538462,23.5471698 L57.5538462,23.5471698 Z" id="Shape"></path>
                    <path d="M70.9951049,22.4150943 C69.641958,23.4566038 67.9730769,23.954717 66.0335664,23.954717 C64.8157343,23.954717 63.7332168,23.7283019 62.6958042,23.3207547 C61.6583916,22.8679245 60.8013986,22.2792453 60.0797203,21.509434 C59.358042,20.7396226 58.7716783,19.8792453 58.3657343,18.8377358 C57.9597902,17.7962264 57.7342657,16.709434 57.7342657,15.5773585 C57.7342657,14.4 57.9597902,13.3132075 58.3657343,12.2716981 C58.7716783,11.2301887 59.358042,10.3245283 60.0797203,9.6 C60.8013986,8.83018868 61.6583916,8.24150943 62.6958042,7.78867925 C63.7332168,7.33584906 64.8157343,7.10943396 66.0335664,7.10943396 C67.9730769,7.10943396 69.641958,7.60754717 70.9951049,8.6490566 C72.3482517,9.69056604 73.2954545,11.0943396 73.7465035,12.9509434 L69.3713287,12.9509434 C69.1006993,12.4075472 68.6496503,11.954717 68.0632867,11.5471698 C67.4769231,11.1396226 66.8003497,10.9584906 66.0335664,10.9584906 C65.4923077,10.9584906 64.951049,11.0943396 64.4548951,11.3207547 C63.9587413,11.5924528 63.5076923,11.909434 63.1468531,12.3169811 C62.786014,12.7245283 62.4702797,13.2226415 62.2447552,13.8113208 C62.0192308,14.4 61.929021,14.9886792 61.929021,15.6226415 C61.929021,16.2566038 62.0192308,16.845283 62.2447552,17.3886792 C62.4702797,17.9320755 62.7409091,18.4301887 63.1468531,18.8830189 C63.5076923,19.290566 63.9587413,19.6528302 64.4548951,19.8792453 C64.951049,20.1056604 65.4923077,20.2415094 66.0335664,20.2415094 C66.8003497,20.2415094 67.4769231,20.0603774 68.1083916,19.6528302 C68.7398601,19.245283 69.1458042,18.7471698 69.4164336,18.2037736 L73.7916084,18.2037736 C73.2954545,19.9698113 72.3482517,21.4188679 70.9951049,22.4150943 Z" id="Shape"></path>
                    <path d="M82.3164336,7.06415094 C83.4440559,7.06415094 84.4814685,7.29056604 85.4737762,7.69811321 C86.4660839,8.10566038 87.3230769,8.73962264 88.0447552,9.46415094 C88.7664336,10.2339623 89.3527972,11.1396226 89.8038462,12.1358491 C90.2548951,13.1320755 90.4353147,14.309434 90.4353147,15.4867925 C90.4353147,16.709434 90.2097902,17.7962264 89.8038462,18.8377358 C89.3979021,19.8792453 88.8115385,20.7396226 88.0447552,21.509434 C87.3230769,22.2792453 86.4660839,22.8679245 85.4737762,23.2754717 C84.4814685,23.6830189 83.4440559,23.909434 82.3164336,23.909434 C81.1888112,23.909434 80.1513986,23.6830189 79.1590909,23.2754717 C78.1667832,22.8679245 77.3097902,22.2792453 76.5881119,21.509434 C75.8664336,20.7396226 75.2800699,19.8792453 74.8741259,18.8377358 C74.4681818,17.7962264 74.2426573,16.709434 74.2426573,15.4867925 C74.2426573,14.2641509 74.4681818,13.1773585 74.8741259,12.1358491 C75.2800699,11.0943396 75.8664336,10.1886792 76.5881119,9.46415094 C77.3097902,8.69433962 78.1667832,8.10566038 79.1590909,7.69811321 C80.1513986,7.29056604 81.1888112,7.06415094 82.3164336,7.06415094 Z M82.3164336,20.1509434 C82.8576923,20.1509434 83.3538462,20.0603774 83.85,19.8339623 C84.3461538,19.6075472 84.7520979,19.290566 85.1129371,18.8830189 C85.4737762,18.4754717 85.7444056,17.9773585 85.9699301,17.4339623 C86.1954545,16.890566 86.2856643,16.2566038 86.2856643,15.5773585 C86.2856643,14.8981132 86.1954545,14.2641509 85.9699301,13.6754717 C85.7444056,13.0867925 85.4737762,12.5886792 85.1129371,12.1811321 C84.7520979,11.7735849 84.3461538,11.4566038 83.85,11.2301887 C83.3538462,11.0037736 82.8576923,10.8679245 82.3164336,10.8679245 C81.7751748,10.8679245 81.279021,11.0037736 80.7828671,11.2301887 C80.2867133,11.4566038 79.8807692,11.7735849 79.5199301,12.1811321 C79.1590909,12.5886792 78.8884615,13.0867925 78.6629371,13.6754717 C78.4374126,14.2641509 78.3472028,14.8981132 78.3472028,15.5773585 C78.3472028,16.2566038 78.4374126,16.890566 78.6629371,17.4339623 C78.8884615,17.9773585 79.1590909,18.4754717 79.5199301,18.8830189 C79.8807692,19.290566 80.2867133,19.6075472 80.7828671,19.8339623 C81.279021,20.0603774 81.7751748,20.1509434 82.3164336,20.1509434 Z" id="Shape"></path>
                    <path d="M96.1636364,5.70566038 L92.0590909,5.70566038 L92.0590909,1.85660377 L96.1636364,1.85660377 L96.1636364,5.70566038 Z M96.1636364,23.5924528 L92.0590909,23.5924528 L92.0590909,7.47169811 L96.1636364,7.47169811 L96.1636364,23.5924528 Z" id="Shape"></path>
                    <path d="M113.077972,23.5924528 L108.973427,23.5924528 L108.973427,14.1735849 C108.973427,13.9471698 108.928322,13.6301887 108.883217,13.2679245 C108.838112,12.9056604 108.702797,12.5433962 108.477273,12.2264151 C108.296853,11.8641509 107.981119,11.5924528 107.575175,11.3660377 C107.169231,11.1396226 106.627972,11.0037736 105.951399,11.0037736 C105.004196,11.0037736 104.282517,11.3207547 103.696154,11.909434 C103.10979,12.4981132 102.839161,13.2679245 102.839161,14.1735849 L102.839161,23.5924528 L98.7797203,23.5924528 L98.7797203,7.47169811 L102.703846,7.47169811 L102.703846,9.05660377 C103.2,8.46792453 103.831469,7.96981132 104.508042,7.60754717 C105.184615,7.24528302 105.951399,7.06415094 106.853497,7.06415094 C107.800699,7.06415094 108.657692,7.24528302 109.424476,7.56226415 C110.191259,7.9245283 110.867832,8.37735849 111.409091,9.01132075 C111.95035,9.64528302 112.356294,10.3698113 112.672028,11.2301887 C112.987762,12.090566 113.123077,13.0867925 113.123077,14.1283019 L113.123077,23.5924528 L113.077972,23.5924528 Z" id="Shape"></path>
                    <path d="M129,18.5207547 C129,19.3358491 128.81958,20.0603774 128.458741,20.6943396 C128.097902,21.3735849 127.601748,21.9169811 127.015385,22.4150943 C126.383916,22.9132075 125.662238,23.2754717 124.805245,23.5471698 C123.948252,23.8188679 123.001049,23.954717 122.008741,23.954717 C120.971329,23.954717 120.069231,23.8188679 119.167133,23.5471698 C118.31014,23.2754717 117.543357,22.9132075 116.866783,22.4150943 C116.19021,21.9169811 115.648951,21.3283019 115.243007,20.6490566 C114.837063,19.9698113 114.521329,19.2 114.431119,18.2943396 L118.625874,18.2943396 C118.761189,18.6566038 118.986713,18.9283019 119.212238,19.154717 C119.482867,19.3811321 119.753497,19.5622642 120.069231,19.7433962 C120.384965,19.8792453 120.700699,20.0150943 121.061538,20.0603774 C121.422378,20.1056604 121.738112,20.1509434 122.053846,20.1509434 C122.865734,20.1509434 123.587413,20.0150943 124.128671,19.7886792 C124.66993,19.5622642 124.940559,19.2 124.940559,18.7018868 C124.940559,18.4754717 124.895455,18.2943396 124.805245,18.1132075 C124.715035,17.9320755 124.534615,17.7962264 124.309091,17.6603774 C124.038462,17.5245283 123.722727,17.4339623 123.271678,17.2981132 C122.820629,17.1622642 122.279371,17.0716981 121.557692,16.9811321 C120.836014,16.890566 120.069231,16.754717 119.302448,16.5735849 C118.535664,16.3924528 117.813986,16.1207547 117.137413,15.7584906 C116.460839,15.3962264 115.91958,14.9433962 115.513636,14.354717 C115.107692,13.7660377 114.882168,13.0415094 114.882168,12.1358491 C114.882168,11.5018868 115.017483,10.8679245 115.288112,10.2792453 C115.558741,9.64528302 116.00979,9.10188679 116.551049,8.60377358 C117.092308,8.10566038 117.813986,7.74339623 118.670979,7.42641509 C119.527972,7.10943396 120.565385,6.97358491 121.693007,6.97358491 C122.595105,6.97358491 123.452098,7.10943396 124.263986,7.33584906 C125.030769,7.56226415 125.752448,7.9245283 126.338811,8.33207547 C126.925175,8.78490566 127.466434,9.28301887 127.827273,9.91698113 C128.233217,10.5509434 128.458741,11.2301887 128.594056,12 L124.354196,12 C124.218881,11.6377358 123.948252,11.3207547 123.497203,11.0490566 C123.046154,10.7773585 122.45979,10.6415094 121.693007,10.6415094 C120.745804,10.6415094 120.069231,10.7773585 119.618182,11.0490566 C119.212238,11.3207547 118.986713,11.6377358 118.986713,11.909434 C118.986713,12.3169811 119.257343,12.6339623 119.843706,12.8150943 C120.384965,12.9962264 121.196853,13.1773585 122.189161,13.3584906 C123.181469,13.5396226 124.083566,13.7207547 124.940559,13.9471698 C125.797552,14.1735849 126.474126,14.445283 127.105594,14.8075472 C127.691958,15.1698113 128.188112,15.6226415 128.503846,16.2113208 C128.81958,16.9358491 129,17.6603774 129,18.5207547 Z" id="Shape"></path>
                </g>
                <g id="logoicon">
                    <g id="Group" transform="translate(14.500000, 16.000000) scale(-1, 1) translate(-14.500000, -16.000000) ">
                        <path d="M3.74938893,1.30906631 C3.47674778,1.71185594 6.71436142,16.9171646 6.71436142,16.9171646 L6.47580042,1.71185594 C6.3053997,1.47689532 4.02203008,0.906276674 3.74938893,1.30906631 Z M7.80492602,22.3883904 C7.80492602,22.5226536 7.80492602,22.623351 7.80492602,22.623351 L7.80492602,22.3883904 Z M0.273214286,5.03487041 L6.10091884,20.7101003 L3.30634706,5.33696264 C3.06778606,4.79990979 0.273214286,5.03487041 0.273214286,5.03487041 Z M27.5714093,18.0919677 C25.6288411,12.9563999 19.7670564,10.371833 14.5187143,12.3186496 C13.973432,12.5200444 13.4622299,12.755005 12.9510277,13.0570973 L13.973432,7.317345 C13.973432,7.317345 14.5868746,1.87968495 7.56636501,0 L7.83900616,22.4219562 C7.83900616,22.119864 7.87308631,21.5492454 7.97532674,20.8443635 C7.83900616,22.287693 8.04348702,23.7310225 8.58876932,25.1743521 C10.5313375,30.3099199 16.3931222,32.8944867 21.6414643,30.9476701 C26.8557263,28.9672878 29.5139775,23.2275355 27.5714093,18.0919677 Z M19.903377,26.2484577 C17.2792059,27.221866 14.3483136,25.9127997 13.3599894,23.3617987 C12.3716653,20.7772319 13.7007909,17.8905729 16.3590421,16.9171646 C18.9832131,15.9437563 21.9141055,17.2528226 22.9024296,19.8038236 C23.8907538,22.4219562 22.5616282,25.2750495 19.903377,26.2484577 Z M16.7680038,18.1255335 C14.8254356,18.8639811 13.8371114,20.9786267 14.5527944,22.8918775 C15.2684775,24.8051282 17.4496067,25.7785365 19.3921748,25.0400888 C21.334743,24.3016412 22.3230672,22.1869956 21.6073842,20.2737449 C20.8917012,18.3604941 18.710572,17.3870858 16.7680038,18.1255335 Z" id="Shape" fill="#673AB7"></path>
                        <path d="M22.1303571,24.2945455 L25.982516,27.8349185 C25.565362,28.333577 25.0866978,28.8340517 24.5465234,29.3363426 C24.1543565,28.9500214 22.8632534,27.7627557 20.6732143,25.7745455 L22.1303571,24.2945455 Z" id="Shape" fill="#FFFFFF"></path>
                    </g>
                </g>
            </g>
        </g>
    </g>
</svg>