<?xml version="1.0" encoding="UTF-8"?>
<!DOCTYPE svg PUBLIC "-//W3C//DTD SVG 1.1//EN" "http://www.w3.org/Graphics/SVG/1.1/DTD/svg11.dtd">
<!-- Creator: CorelDRAW X8 -->
<svg xmlns="http://www.w3.org/2000/svg" xml:space="preserve" width="118.533mm" height="52.831mm" version="1.1" style="shape-rendering:geometricPrecision; text-rendering:geometricPrecision; image-rendering:optimizeQuality; fill-rule:evenodd; clip-rule:evenodd"
viewBox="0 0 11853 5283"
 xmlns:xlink="http://www.w3.org/1999/xlink"
 enable-background="new 0 0 193.425 59.614">
 <defs>
  <style type="text/css">
   <![CDATA[
    .fil1 {fill:black}
    .fil2 {fill:#46433E}
    .fil0 {fill:#E18C44}
   ]]>
  </style>
 </defs>
 <g id="Слой_x0020_1">
  <metadata id="CorelCorpID_0Corel-Layer"/>
  <path class="fil0" d="M2381 2135c-28,0 -55,-16 -68,-44l-64 -144c-16,-38 1,-81 38,-98 37,-16 81,1 97,38l64 144c17,37 0,81 -37,98 -10,4 -20,6 -30,6z"/>
  <path class="fil0" d="M2838 3164c-29,0 -56,-16 -68,-43l-457 -1030c-16,-37 1,-81 38,-97 37,-17 81,0 97,37l457 1030c17,37 0,81 -38,97 -9,4 -19,6 -29,6z"/>
  <path class="fil0" d="M2908 3323c-29,0 -56,-17 -68,-44l-70 -158c-16,-38 0,-81 38,-98 37,-17 81,0 97,38l70 158c17,37 0,81 -37,97 -10,5 -20,7 -30,7z"/>
  <path class="fil0" d="M2837 3164c-32,0 -61,-21 -70,-53 -12,-39 11,-80 50,-91 77,-22 293,-108 361,-239 25,-47 29,-97 11,-151 -25,-74 -65,-121 -121,-143 -142,-56 -347,52 -370,65 -36,19 -80,6 -100,-30 -19,-35 -6,-80 30,-100 47,-26 294,-151 494,-72 98,39 168,117 207,234 31,93 24,182 -20,266 -113,213 -437,308 -451,312 -7,1 -14,2 -21,2l0 0z"/>
  <path class="fil0" d="M2633 2578c-26,0 -51,-14 -64,-38 -20,-34 -9,-78 25,-99 0,0 13,-8 34,-19 35,-19 79,-7 99,28 20,35 9,79 -25,100 -22,13 -35,20 -35,20 -11,5 -23,8 -34,8z"/>
  <path class="fil0" d="M2200 2215c-28,0 -55,-16 -67,-44 -17,-37 0,-81 38,-97l180 -80c37,-17 81,0 97,37 17,37 0,81 -37,98l-181 80c-9,4 -20,6 -30,6z"/>
  <path class="fil0" d="M2657 3244c-28,0 -55,-16 -67,-43 -17,-38 0,-81 37,-98l181 -80c37,-17 81,0 97,38 17,37 0,81 -38,97l-180 80c-10,4 -20,6 -30,6z"/>
  <path class="fil0" d="M2663 2561c-28,0 -55,-16 -67,-43 -17,-38 -1,-81 36,-98 65,-29 146,-95 173,-169 15,-41 12,-81 -8,-123 -18,-35 -42,-57 -76,-68 -100,-31 -257,39 -304,65 -35,20 -80,8 -100,-28 -20,-35 -8,-80 27,-100 25,-14 243,-133 421,-78 73,23 130,73 164,145 38,77 43,159 15,237 -45,123 -163,213 -250,253 -10,5 -21,7 -31,7l0 0z"/>
  <path class="fil0" d="M2644 2046c-29,0 -56,-16 -68,-44l-74 -167c-17,-38 0,-81 37,-98 38,-16 81,1 98,38l74 167c17,38 0,81 -38,98 -9,4 -19,6 -29,6z"/>
  <path class="fil0" d="M3160 3211c-28,0 -55,-17 -67,-44l-70 -159c-17,-37 0,-80 37,-97 38,-17 81,0 98,38l70 158c16,37 -1,81 -38,97 -10,5 -20,7 -30,7z"/>
  <path class="fil0" d="M2716 3765c-492,0 -937,-291 -1135,-741 -274,-625 12,-1357 637,-1631 158,-69 325,-104 496,-104 492,0 937,291 1135,741 132,303 139,639 19,947 -120,308 -353,551 -656,684 -158,69 -325,104 -496,104zm-2 -2329c-150,0 -297,31 -437,92 -550,242 -802,886 -560,1436 173,397 566,653 999,653 150,0 297,-31 437,-92 266,-117 472,-330 577,-602 106,-271 100,-567 -17,-834 -173,-396 -566,-653 -999,-653z"/>
  <path class="fil0" d="M2720 4051c-589,0 -1152,-342 -1402,-912 -338,-770 14,-1672 785,-2009l17 -7c38,-16 81,1 97,39 16,37 -2,81 -39,96l-16 7c-696,305 -1014,1119 -709,1815 302,687 1109,1008 1800,715 38,-16 81,1 97,39 16,37 -2,81 -39,97 -193,81 -394,120 -591,120z"/>
  <path class="fil1" d="M4648 2708c-20,-20 -30,-45 -30,-78l0 -825c0,-32 10,-58 32,-78 21,-19 46,-29 77,-29l487 0c23,0 42,8 55,25 14,16 21,35 21,57 0,21 -7,40 -21,56 -13,17 -32,25 -55,25l-389 0 0 262 368 0c23,0 42,8 55,24 14,16 21,35 21,56 0,23 -7,41 -20,57 -14,16 -32,23 -56,23l-368 0 0 347c0,33 -11,58 -31,78 -21,20 -45,30 -74,30 -28,0 -52,-10 -72,-30z"/>
  <path class="fil1" d="M5610 2715c-50,-20 -89,-48 -119,-83 -29,-35 -52,-74 -67,-118 -15,-43 -23,-89 -23,-137 0,-39 5,-76 14,-112 9,-36 24,-69 44,-101 20,-32 45,-60 74,-83 29,-24 65,-42 107,-56 42,-14 88,-20 139,-20 49,0 95,6 136,19 42,14 77,32 107,54 29,23 54,50 75,82 20,31 35,65 45,102 10,36 15,75 15,115 0,38 -4,74 -14,109 -9,35 -24,69 -44,101 -20,32 -44,59 -73,83 -30,23 -65,42 -108,56 -42,13 -88,20 -139,20 -63,0 -120,-10 -169,-31zm314 -157c35,-43 52,-104 52,-181 0,-79 -17,-140 -52,-184 -34,-43 -83,-65 -145,-65 -63,0 -111,22 -146,65 -34,44 -51,105 -51,184 0,77 17,138 52,181 34,43 83,65 145,65 62,0 111,-22 145,-65z"/>
  <path class="fil1" d="M6466 2729c-30,-11 -58,-27 -82,-49 -25,-22 -44,-51 -58,-87 -15,-36 -22,-77 -22,-123l0 -355c0,-32 9,-57 26,-74 17,-18 40,-26 67,-26 25,0 46,8 63,26 17,17 25,42 25,74l0 355c0,50 13,88 38,114 26,26 58,39 98,39 48,0 90,-19 126,-57 35,-38 53,-87 53,-148l0 -303c0,-32 8,-57 25,-74 17,-18 39,-26 66,-26 26,0 48,8 64,26 17,17 26,42 26,74l0 532c0,29 -9,51 -26,67 -18,16 -39,24 -66,24 -26,0 -47,-8 -64,-23 -17,-16 -25,-38 -25,-66l0 -27c-44,83 -122,124 -236,124 -35,0 -67,-5 -98,-17l0 0z"/>
  <path class="fil1" d="M7196 2711c-17,-17 -25,-41 -25,-73l0 -533c0,-28 9,-51 26,-67 17,-15 39,-23 66,-23 25,0 47,7 64,23 17,16 25,38 25,66l0 25c21,-41 52,-72 93,-93 40,-21 89,-32 145,-32 35,0 67,6 98,17 30,12 57,28 81,50 24,22 43,51 57,87 14,36 21,77 21,123l0 357c0,31 -8,56 -26,73 -17,18 -39,27 -66,27 -25,0 -47,-9 -63,-27 -17,-17 -26,-42 -26,-73l0 -357c0,-50 -13,-88 -38,-114 -26,-26 -59,-39 -99,-39 -48,0 -89,19 -124,57 -36,38 -53,87 -53,148l0 305c0,31 -9,56 -26,73 -17,18 -38,27 -65,27 -26,0 -48,-9 -65,-27z"/>
  <path class="fil1" d="M8139 2698c-48,-33 -84,-78 -108,-134 -24,-57 -37,-120 -37,-191 0,-114 30,-203 88,-268 59,-66 137,-98 235,-98 105,0 181,38 228,115l0 -327c0,-31 8,-55 25,-72 17,-17 39,-26 66,-26 27,0 48,9 65,26 16,17 25,41 25,72l0 840c0,32 -9,56 -27,75 -17,18 -39,28 -65,28 -27,0 -49,-8 -65,-23 -16,-15 -24,-37 -24,-67l0 -25c-46,83 -125,125 -238,125 -64,0 -120,-17 -168,-50l0 0zm361 -135c29,-42 44,-105 44,-187 0,-47 -6,-88 -18,-124 -13,-36 -33,-65 -63,-88 -29,-23 -65,-35 -108,-35 -33,0 -61,7 -85,21 -25,14 -44,33 -57,57 -13,24 -23,49 -30,77 -6,28 -10,58 -10,90 0,30 3,59 9,87 6,27 16,54 29,80 13,26 32,47 56,62 25,16 53,24 87,24 68,0 117,-21 146,-64z"/>
  <path class="fil1" d="M8934 1843c-19,-19 -29,-43 -29,-73 0,-30 10,-54 29,-72 20,-18 45,-27 77,-27 31,0 57,9 76,27 19,18 29,42 29,72 0,30 -10,54 -30,73 -19,18 -44,27 -76,27 -31,0 -56,-9 -76,-27zm11 868c-16,-17 -25,-42 -25,-74l0 -521c0,-32 9,-57 25,-75 17,-18 39,-26 65,-26 27,0 49,9 66,26 17,18 25,43 25,75l0 521c0,32 -8,56 -25,74 -17,18 -39,27 -66,27 -26,0 -48,-9 -65,-27z"/>
  <path class="fil1" d="M9482 2549c34,44 82,65 143,65 60,0 108,-12 145,-37 12,-8 25,-12 37,-12 15,0 28,6 39,17 11,12 16,26 16,43 0,22 -10,41 -29,57 -20,18 -49,34 -88,46 -38,12 -84,18 -137,18 -106,0 -193,-34 -260,-104 -67,-69 -101,-158 -101,-267 0,-68 15,-130 45,-186 30,-56 73,-101 129,-134 55,-34 119,-50 189,-50 84,0 153,19 206,57 21,16 32,34 32,56 0,16 -5,30 -17,42 -11,11 -25,17 -41,17 -12,0 -23,-3 -34,-9 -43,-22 -86,-33 -127,-33 -62,0 -111,22 -147,65 -35,43 -53,101 -53,174 0,72 18,131 53,175l0 0z"/>
  <path class="fil1" d="M10163 2715c-49,-20 -89,-48 -118,-83 -30,-35 -52,-74 -68,-118 -15,-43 -23,-89 -23,-137 0,-39 5,-76 14,-112 10,-36 24,-69 45,-101 20,-32 44,-60 73,-83 30,-24 65,-42 107,-56 42,-14 89,-20 139,-20 50,0 95,6 137,19 41,14 77,32 106,54 29,23 54,50 75,82 21,31 36,65 46,102 10,36 15,75 15,115 0,38 -5,74 -15,109 -9,35 -24,69 -44,101 -19,32 -44,59 -73,83 -29,23 -65,42 -107,56 -42,13 -89,20 -140,20 -63,0 -119,-10 -169,-31zm315 -157c34,-43 52,-104 52,-181 0,-79 -18,-140 -52,-184 -35,-43 -83,-65 -146,-65 -62,0 -111,22 -145,65 -35,44 -52,105 -52,184 0,77 18,138 52,181 35,43 83,65 145,65 63,0 111,-22 146,-65z"/>
  <path class="fil2" d="M4581 3500c-4,-4 -7,-10 -7,-17l0 -253 -45 0c-12,0 -18,-5 -18,-15 0,-10 6,-15 18,-15l45 0 0 -42c0,-16 2,-30 5,-42 2,-12 6,-22 11,-29 5,-8 11,-13 18,-18 7,-5 14,-8 22,-10 8,-1 17,-2 26,-2l38 0c5,0 8,2 11,5 3,3 5,7 5,12 0,5 -2,9 -5,12 -3,3 -7,5 -12,5l-27 0c-13,0 -22,2 -28,6 -6,4 -11,12 -14,25 -3,12 -4,31 -4,56l0 22 58 0c11,0 16,5 16,15 0,5 -1,9 -3,11 -2,3 -7,4 -13,4l-58 0 0 253c0,7 -2,12 -7,16 -5,5 -10,7 -16,7 -6,0 -12,-2 -16,-6z"/>
  <path class="fil2" d="M4769 3110c-6,-6 -9,-13 -9,-22 0,-9 3,-16 9,-22 6,-5 13,-8 23,-8 10,0 17,3 23,8 6,6 9,13 9,22 0,9 -3,16 -9,22 -6,5 -13,8 -23,8 -10,0 -18,-3 -23,-8zm7 390c-5,-4 -7,-10 -7,-18l0 -263c0,-7 3,-13 7,-16 5,-4 10,-6 17,-6 6,0 11,2 15,6 5,3 7,9 7,16l0 263c0,7 -2,13 -7,17 -5,5 -10,7 -17,7 -6,0 -11,-2 -15,-6z"/>
  <path class="fil2" d="M4923 3500c-4,-4 -6,-9 -6,-16l0 -266c0,-6 2,-12 7,-15 4,-4 10,-6 16,-6 6,0 11,2 16,5 4,4 7,9 7,16l0 35c7,-20 20,-36 38,-47 19,-11 40,-17 64,-17 36,0 64,10 83,30 20,20 30,50 30,92l0 173c0,7 -3,12 -7,16 -5,4 -10,6 -16,6 -6,0 -12,-2 -16,-6 -5,-4 -7,-9 -7,-16l0 -174c0,-59 -26,-89 -77,-89 -26,0 -47,8 -64,25 -17,16 -26,40 -28,70l0 168c0,7 -3,12 -7,16 -5,4 -11,6 -17,6 -6,0 -11,-2 -16,-6l0 0z"/>
  <path class="fil2" d="M5326 3499c-18,-9 -32,-21 -42,-36 -11,-15 -19,-33 -25,-52 -5,-19 -8,-40 -8,-62 0,-21 3,-42 9,-61 7,-19 15,-36 27,-50 11,-15 26,-27 43,-36 18,-9 38,-13 60,-13 24,0 45,6 64,17 19,12 32,27 41,48l0 -172c0,-6 2,-12 7,-15 4,-4 10,-6 16,-6 6,0 12,2 16,6 5,3 7,9 7,15l0 402c0,7 -2,12 -7,15 -4,4 -9,5 -16,5 -8,0 -14,-2 -18,-6 -3,-4 -5,-8 -5,-14l0 -37c-10,21 -25,38 -44,49 -19,11 -41,16 -66,16 -22,0 -42,-4 -59,-13l0 0zm114 -29c14,-7 25,-17 33,-29 7,-13 13,-27 16,-42 4,-15 6,-32 6,-50 0,-17 -2,-32 -6,-47 -4,-15 -10,-28 -17,-41 -8,-12 -19,-22 -32,-29 -13,-8 -28,-11 -46,-11 -14,0 -26,2 -37,7 -12,6 -21,12 -28,21 -7,9 -14,19 -18,30 -5,12 -9,23 -11,35 -2,12 -3,24 -3,37 0,16 2,31 5,45 3,14 8,28 15,41 6,13 16,23 29,31 12,8 27,12 44,13 19,0 36,-4 50,-11z"/>
  <path class="fil2" d="M5847 3416l0 -186 -42 0c-12,0 -18,-5 -18,-15 0,-10 6,-15 18,-15l42 0 5 -93c0,-4 3,-9 7,-13 5,-4 10,-7 14,-7 5,0 10,2 14,6 3,3 5,8 5,14l0 93 60 0c12,0 18,5 18,15 0,10 -6,15 -18,15l-60 0 0 182c0,24 4,40 10,49 7,10 18,14 32,14l3 0 20 -1 1 0c6,0 11,2 14,6 3,3 5,7 5,12 0,8 -3,13 -10,16 -7,2 -16,4 -29,4 -2,0 -5,0 -10,0 -4,-1 -7,-1 -9,-1 -48,1 -72,-31 -72,-95z"/>
  <path class="fil2" d="M6057 3500c-5,-4 -7,-9 -7,-15l0 -267c0,-6 3,-11 7,-15 5,-4 10,-5 16,-5 6,0 12,1 16,5 5,4 7,9 7,16l0 37c5,-19 15,-36 31,-48 15,-13 35,-20 59,-20 5,0 9,2 12,7 4,4 5,9 5,14 0,5 -1,9 -5,13 -3,4 -8,5 -14,5 -15,0 -29,3 -41,8 -11,6 -21,12 -27,21 -7,9 -12,17 -15,27 -3,9 -5,18 -5,27l0 175c0,6 -2,11 -7,15 -5,4 -10,6 -17,6 -6,0 -11,-2 -15,-6l0 0z"/>
  <path class="fil2" d="M6296 3482c-20,-20 -30,-50 -30,-92l0 -172c0,-7 2,-12 7,-16 4,-4 9,-5 16,-5 6,0 11,1 16,5 5,4 7,9 7,16l0 173c0,60 25,90 76,90 26,0 47,-9 64,-25 17,-17 27,-40 29,-71l0 -167c0,-7 2,-12 7,-16 5,-3 10,-5 16,-5 7,0 12,1 16,5 5,4 7,9 7,16l0 266c0,7 -3,12 -7,16 -5,4 -10,6 -16,6 -6,0 -12,-2 -16,-6 -5,-3 -7,-9 -7,-15l0 -37c-7,21 -20,36 -39,48 -18,11 -39,16 -63,16 -36,0 -63,-10 -83,-30l0 0z"/>
  <path class="fil2" d="M6794 3197c19,5 33,11 43,16 7,4 10,9 10,15 0,4 -1,8 -4,11 -3,3 -6,4 -11,4 -2,0 -5,0 -8,-1 -2,-1 -5,-2 -11,-4 -5,-3 -10,-5 -15,-6 -4,-1 -10,-3 -16,-5 -7,-2 -13,-3 -21,-4 -7,-1 -14,-2 -21,-2 -55,0 -82,17 -82,51 0,13 4,23 11,28 8,6 24,11 49,18l57 14c31,7 52,18 65,32 12,15 18,32 18,53 0,32 -11,55 -33,71 -22,16 -52,24 -88,24 -21,0 -42,-3 -63,-10 -22,-7 -38,-14 -50,-23 -5,-4 -8,-9 -8,-15 0,-4 1,-7 4,-10 3,-4 7,-5 12,-5 4,0 8,1 13,4 29,18 61,27 95,27 24,0 44,-5 58,-15 14,-10 21,-24 21,-43 0,-15 -4,-26 -12,-34 -8,-9 -22,-15 -42,-20l-59 -14c-13,-3 -23,-6 -31,-8 -8,-3 -16,-6 -24,-10 -9,-5 -15,-9 -20,-14 -4,-6 -8,-12 -11,-20 -3,-9 -5,-18 -5,-29 0,-15 4,-28 11,-39 7,-12 16,-20 28,-26 12,-7 24,-11 38,-14 14,-3 29,-5 45,-5 20,0 39,3 57,8z"/>
  <path class="fil2" d="M6965 3416l0 -186 -42 0c-12,0 -18,-5 -18,-15 0,-10 6,-15 18,-15l42 0 5 -93c0,-4 3,-9 7,-13 5,-4 10,-7 14,-7 5,0 10,2 14,6 3,3 5,8 5,14l0 93 60 0c12,0 18,5 18,15 0,10 -6,15 -18,15l-60 0 0 182c0,24 4,40 10,49 7,10 18,14 32,14l3 0 20 -1 1 0c6,0 11,2 14,6 3,3 5,7 5,12 0,8 -3,13 -10,16 -7,2 -16,4 -29,4 -2,0 -5,0 -10,0 -4,-1 -7,-1 -9,-1 -48,1 -72,-31 -72,-95z"/>
  <path class="fil2" d="M7297 3512c-43,0 -78,-14 -107,-44 -29,-29 -43,-68 -43,-116 0,-30 6,-57 17,-81 12,-24 29,-44 52,-59 23,-15 49,-23 80,-23 19,0 37,3 53,8 16,6 29,13 39,22 11,9 19,21 26,34 8,13 13,27 16,42 3,14 5,30 5,47 0,4 -1,8 -5,11 -3,4 -8,5 -15,5l-222 0c0,38 10,68 30,89 21,21 46,31 76,32 22,0 40,-4 56,-11 15,-7 31,-16 46,-29 4,-3 8,-5 12,-5 4,0 7,2 10,5 3,3 4,6 4,10 0,6 -2,11 -7,16 -15,14 -32,25 -51,34 -19,9 -43,13 -72,13l0 0 0 0 0 0zm98 -183c-2,-32 -11,-58 -27,-78 -15,-20 -38,-30 -69,-30 -31,0 -56,10 -74,31 -18,21 -28,47 -31,77l201 0 0 0 0 0z"/>
  <path class="fil2" d="M7575 3499c-18,-9 -32,-21 -43,-36 -10,-15 -18,-33 -24,-52 -5,-19 -8,-40 -8,-62 0,-21 3,-42 9,-61 6,-19 15,-36 26,-50 12,-15 26,-27 44,-36 18,-9 38,-13 60,-13 23,0 45,6 63,17 19,12 33,27 42,48l0 -172c0,-6 2,-12 7,-15 4,-4 9,-6 16,-6 6,0 11,2 16,6 4,3 6,9 6,15l0 402c0,7 -2,12 -6,15 -5,4 -10,5 -16,5 -8,0 -14,-2 -18,-6 -3,-4 -5,-8 -5,-14l0 -37c-10,21 -25,38 -44,49 -20,11 -42,16 -66,16 -22,0 -42,-4 -59,-13l0 0zm114 -29c14,-7 25,-17 32,-29 8,-13 14,-27 17,-42 4,-15 5,-32 5,-50 0,-17 -1,-32 -5,-47 -4,-15 -10,-28 -18,-41 -7,-12 -18,-22 -31,-29 -13,-8 -29,-11 -46,-11 -14,0 -26,2 -38,7 -11,6 -20,12 -27,21 -8,9 -14,19 -19,30 -4,12 -8,23 -10,35 -2,12 -3,24 -3,37 0,16 2,31 5,45 3,14 8,28 14,41 7,13 17,23 29,31 13,8 28,12 44,13 20,0 37,-4 51,-11z"/>
  <path class="fil2" d="M8097 3499c-5,-4 -8,-10 -8,-17l0 -397c0,-7 3,-13 8,-18 5,-4 11,-6 18,-6 7,0 13,2 18,6 5,4 7,10 7,18l0 397c0,8 -3,13 -8,17 -5,5 -11,7 -18,7 -7,0 -12,-2 -17,-7z"/>
  <path class="fil2" d="M8376 3501c-22,-8 -42,-19 -57,-33 -16,-14 -29,-30 -40,-49 -11,-19 -20,-40 -25,-62 -5,-22 -7,-46 -7,-70 0,-30 4,-59 13,-85 8,-27 21,-51 38,-73 16,-21 38,-38 65,-51 27,-13 57,-19 91,-19 42,0 79,10 112,30 6,3 9,9 9,16 0,5 -2,9 -5,13 -3,4 -8,6 -13,6 -3,0 -7,-1 -10,-3l-5 -3c-4,-2 -6,-3 -7,-3 -1,-1 -3,-2 -7,-4 -4,-2 -8,-3 -10,-4 -3,0 -7,-1 -12,-3 -5,-1 -10,-2 -14,-2 -5,-1 -11,-2 -17,-2 -7,-1 -13,-1 -20,-1 -23,0 -42,4 -60,11 -18,7 -32,17 -44,29 -12,12 -21,26 -29,42 -8,16 -13,33 -17,51 -3,17 -5,35 -5,54 0,19 2,38 5,55 3,17 9,34 16,50 8,16 18,30 29,42 12,12 27,21 45,28 18,8 38,11 61,11 19,0 36,-3 50,-7 14,-5 30,-13 46,-23 4,-2 8,-3 12,-3 5,0 9,1 13,5 3,3 5,7 5,12 0,9 -5,16 -15,23 -34,22 -73,33 -117,33 -27,0 -52,-3 -74,-11z"/>
  <path class="fil2" d="M8727 3451c-38,-40 -56,-96 -56,-165 0,-70 18,-125 56,-166 37,-41 88,-61 151,-61 63,0 114,20 151,61 37,41 56,96 56,166 0,69 -19,125 -56,165 -37,41 -88,61 -151,61 -63,0 -114,-20 -151,-61zm263 -28c28,-34 42,-79 42,-137 0,-59 -14,-104 -42,-137 -27,-33 -65,-50 -112,-50 -47,0 -85,17 -112,50 -28,33 -42,79 -42,137 0,58 14,103 42,137 27,33 65,49 112,49 47,0 85,-16 112,-49z"/>
 </g>
</svg>
