<?xml version="1.0" encoding="utf-8"?>
<!-- Generator: Adobe Illustrator 22.1.0, SVG Export Plug-In . SVG Version: 6.00 Build 0)  -->
<svg version="1.1" xmlns="http://www.w3.org/2000/svg" xmlns:xlink="http://www.w3.org/1999/xlink" x="0px" y="0px"
	 viewBox="0 0 336 95.8" style="enable-background:new 0 0 336 95.8;" xml:space="preserve">
<style type="text/css">
	.st0{display:none;}
	.st1{display:inline;}
	.st2{fill:#E18C44;}
	.st3{fill:#46433E;}
	.st4{fill:#F16C62;}
</style>
<g id="Layer_1" class="st0">
	<g id="Слой_x0020_1" class="st1">
		<path class="st2" d="M66.4,34.2c-0.8,0-1.6-0.5-1.9-1.2l-1.8-4.1c-0.5-1.1,0-2.3,1.1-2.8c1-0.5,2.3,0,2.7,1.1l1.8,4.1
			c0.5,1,0,2.3-1,2.8C67,34.1,66.7,34.2,66.4,34.2z"/>
		<path class="st2" d="M79.4,63.4c-0.8,0-1.6-0.5-1.9-1.2l-13-29.2c-0.5-1,0-2.3,1.1-2.7c1-0.5,2.3,0,2.7,1l13,29.2
			c0.5,1,0,2.3-1.1,2.7C80,63.3,79.7,63.4,79.4,63.4z"/>
		<path class="st2" d="M81.4,67.9c-0.8,0-1.6-0.5-1.9-1.2l-2-4.5c-0.5-1.1,0-2.3,1.1-2.8c1-0.5,2.3,0,2.7,1.1l2,4.5
			c0.5,1,0,2.3-1,2.7C81.9,67.8,81.7,67.9,81.4,67.9z"/>
		<path class="st2" d="M79.4,63.4c-0.9,0-1.7-0.6-2-1.5c-0.3-1.1,0.3-2.3,1.4-2.6c2.2-0.6,8.3-3.1,10.2-6.8c0.7-1.3,0.8-2.7,0.3-4.3
			c-0.7-2.1-1.8-3.4-3.4-4.1c-4-1.6-9.8,1.5-10.5,1.8c-1,0.5-2.3,0.2-2.8-0.9c-0.5-1-0.2-2.3,0.9-2.8c1.3-0.7,8.3-4.3,14-2
			c2.8,1.1,4.8,3.3,5.9,6.6c0.9,2.6,0.7,5.2-0.6,7.5c-3.2,6-12.4,8.7-12.8,8.8C79.8,63.3,79.6,63.4,79.4,63.4L79.4,63.4z"/>
		<path class="st2" d="M73.6,46.8c-0.7,0-1.4-0.4-1.8-1.1c-0.6-1-0.3-2.2,0.7-2.8c0,0,0.4-0.2,1-0.5c1-0.5,2.2-0.2,2.8,0.8
			s0.3,2.2-0.7,2.8c-0.6,0.4-1,0.6-1,0.6C74.2,46.7,73.9,46.8,73.6,46.8z"/>
		<path class="st2" d="M61.3,36.5c-0.8,0-1.6-0.5-1.9-1.2c-0.5-1,0-2.3,1.1-2.7l5.1-2.3c1-0.5,2.3,0,2.7,1c0.5,1,0,2.3-1,2.8
			l-5.1,2.3C61.9,36.4,61.6,36.5,61.3,36.5z"/>
		<path class="st2" d="M74.3,65.6c-0.8,0-1.6-0.5-1.9-1.2c-0.5-1.1,0-2.3,1-2.8l5.1-2.3c1-0.5,2.3,0,2.7,1.1c0.5,1,0,2.3-1.1,2.7
			l-5.1,2.3C74.8,65.6,74.5,65.6,74.3,65.6z"/>
		<path class="st2" d="M74.4,46.3c-0.8,0-1.6-0.5-1.9-1.2c-0.5-1.1,0-2.3,1-2.8c1.8-0.8,4.1-2.7,4.9-4.8c0.4-1.2,0.3-2.3-0.2-3.5
			c-0.5-1-1.2-1.6-2.2-1.9c-2.8-0.9-7.3,1.1-8.6,1.8c-1,0.6-2.3,0.2-2.8-0.8c-0.6-1-0.2-2.3,0.8-2.8c0.7-0.4,6.9-3.8,11.9-2.2
			c2.1,0.7,3.7,2.1,4.6,4.1c1.1,2.2,1.2,4.5,0.4,6.7c-1.3,3.5-4.6,6-7.1,7.2C75,46.2,74.7,46.3,74.4,46.3L74.4,46.3z"/>
		<path class="st2" d="M73.9,31.7c-0.8,0-1.6-0.5-1.9-1.2l-2.1-4.7c-0.5-1.1,0-2.3,1-2.8c1.1-0.5,2.3,0,2.8,1.1l2.1,4.7
			c0.5,1.1,0,2.3-1.1,2.8C74.5,31.6,74.2,31.7,73.9,31.7z"/>
		<path class="st2" d="M88.5,64.7c-0.8,0-1.6-0.5-1.9-1.2l-2-4.5c-0.5-1,0-2.3,1-2.7c1.1-0.5,2.3,0,2.8,1.1l2,4.5
			c0.5,1,0,2.3-1.1,2.7C89.1,64.6,88.8,64.7,88.5,64.7z"/>
		<path class="st2" d="M75.9,80.4c-13.9,0-26.6-8.2-32.2-21C36,41.7,44.1,20.9,61.8,13.2c4.5-2,9.2-2.9,14.1-2.9
			c13.9,0,26.6,8.2,32.2,21c3.7,8.6,3.9,18.1,0.5,26.8c-3.4,8.7-10,15.6-18.6,19.4C85.5,79.4,80.8,80.4,75.9,80.4z M75.9,14.4
			c-4.3,0-8.4,0.9-12.4,2.6c-15.6,6.9-22.7,25.1-15.9,40.7c4.9,11.3,16,18.5,28.3,18.5c4.3,0,8.4-0.9,12.4-2.6
			c7.5-3.3,13.4-9.4,16.4-17.1c3-7.7,2.8-16.1-0.5-23.6C99.3,21.7,88.1,14.4,75.9,14.4z"/>
		<path class="st2" d="M76,88.5c-16.7,0-32.7-9.7-39.7-25.9c-9.6-21.8,0.4-47.4,22.3-56.9L59,5.5c1.1-0.5,2.3,0,2.7,1.1
			c0.5,1-0.1,2.3-1.1,2.7l-0.5,0.2C40.5,18.2,31.5,41.3,40.1,61c8.6,19.5,31.4,28.6,51,20.3c1.1-0.5,2.3,0,2.7,1.1
			c0.5,1-0.1,2.3-1.1,2.7C87.3,87.4,81.6,88.5,76,88.5z"/>
		<path d="M130.7,50.4c-0.6-0.6-0.9-1.3-0.9-2.2V24.8c0-0.9,0.3-1.6,0.9-2.2c0.6-0.5,1.3-0.8,2.2-0.8h13.8c0.7,0,1.2,0.2,1.6,0.7
			c0.4,0.5,0.6,1,0.6,1.6c0,0.6-0.2,1.1-0.6,1.6c-0.4,0.5-0.9,0.7-1.6,0.7h-11v7.4h10.4c0.7,0,1.2,0.2,1.6,0.7
			c0.4,0.5,0.6,1,0.6,1.6c0,0.7-0.2,1.2-0.6,1.6c-0.4,0.5-0.9,0.7-1.6,0.7h-10.4v9.8c0,0.9-0.3,1.6-0.9,2.2
			c-0.6,0.6-1.3,0.9-2.1,0.9C131.9,51.3,131.3,51,130.7,50.4z"/>
		<path d="M158,50.6c-1.4-0.6-2.5-1.4-3.4-2.4c-0.8-1-1.5-2.1-1.9-3.3c-0.4-1.2-0.7-2.5-0.7-3.9c0-1.1,0.1-2.2,0.4-3.2
			c0.3-1,0.7-2,1.2-2.9s1.3-1.7,2.1-2.4c0.8-0.7,1.8-1.2,3-1.6c1.2-0.4,2.5-0.6,3.9-0.6c1.4,0,2.7,0.2,3.9,0.5
			c1.2,0.4,2.2,0.9,3,1.5c0.8,0.7,1.5,1.4,2.1,2.3c0.6,0.9,1,1.8,1.3,2.9c0.3,1,0.4,2.1,0.4,3.3c0,1.1-0.1,2.1-0.4,3.1
			c-0.3,1-0.7,2-1.2,2.9c-0.6,0.9-1.2,1.7-2.1,2.4c-0.9,0.7-1.8,1.2-3.1,1.6c-1.2,0.4-2.5,0.6-3.9,0.6C161,51.5,159.4,51.2,158,50.6
			z M166.9,46.2c1-1.2,1.5-2.9,1.5-5.1c0-2.2-0.5-4-1.5-5.2c-1-1.2-2.4-1.8-4.1-1.8c-1.8,0-3.1,0.6-4.1,1.8c-1,1.2-1.4,3-1.4,5.2
			c0,2.2,0.5,3.9,1.5,5.1c1,1.2,2.4,1.8,4.1,1.8C164.5,48,165.9,47.4,166.9,46.2z"/>
		<path d="M182.2,51c-0.9-0.3-1.6-0.8-2.3-1.4c-0.7-0.6-1.2-1.4-1.6-2.5c-0.4-1-0.6-2.2-0.6-3.5V33.6c0-0.9,0.3-1.6,0.7-2.1
			c0.5-0.5,1.1-0.7,1.9-0.7c0.7,0,1.3,0.2,1.8,0.7c0.5,0.5,0.7,1.2,0.7,2.1v10.1c0,1.4,0.4,2.5,1.1,3.2c0.7,0.7,1.6,1.1,2.8,1.1
			c1.4,0,2.6-0.5,3.6-1.6c1-1.1,1.5-2.5,1.5-4.2v-8.6c0-0.9,0.2-1.6,0.7-2.1c0.5-0.5,1.1-0.7,1.9-0.7c0.7,0,1.4,0.2,1.8,0.7
			c0.5,0.5,0.7,1.2,0.7,2.1v15.1c0,0.8-0.3,1.4-0.7,1.9c-0.5,0.5-1.1,0.7-1.9,0.7c-0.7,0-1.3-0.2-1.8-0.7c-0.5-0.5-0.7-1.1-0.7-1.9
			V48c-1.2,2.4-3.5,3.5-6.7,3.5C184,51.5,183.1,51.4,182.2,51L182.2,51z"/>
		<path d="M202.9,50.5c-0.5-0.5-0.7-1.2-0.7-2.1V33.3c0-0.8,0.3-1.4,0.7-1.9c0.5-0.4,1.1-0.7,1.9-0.7c0.7,0,1.3,0.2,1.8,0.7
			c0.5,0.5,0.7,1.1,0.7,1.9V34c0.6-1.2,1.5-2,2.6-2.6c1.1-0.6,2.5-0.9,4.1-0.9c1,0,1.9,0.2,2.8,0.5c0.9,0.3,1.6,0.8,2.3,1.4
			c0.7,0.6,1.2,1.4,1.6,2.5c0.4,1,0.6,2.2,0.6,3.5v10.1c0,0.9-0.2,1.6-0.7,2.1c-0.5,0.5-1.1,0.8-1.9,0.8c-0.7,0-1.3-0.3-1.8-0.8
			c-0.5-0.5-0.7-1.2-0.7-2.1V38.3c0-1.4-0.4-2.5-1.1-3.2c-0.7-0.7-1.7-1.1-2.8-1.1c-1.4,0-2.5,0.5-3.5,1.6c-1,1.1-1.5,2.5-1.5,4.2
			v8.6c0,0.9-0.3,1.6-0.7,2.1c-0.5,0.5-1.1,0.8-1.8,0.8C204,51.3,203.4,51,202.9,50.5z"/>
		<path d="M229.7,50.2c-1.4-0.9-2.4-2.2-3.1-3.8c-0.7-1.6-1-3.4-1-5.4c0-3.2,0.9-5.8,2.5-7.6c1.7-1.9,3.9-2.8,6.7-2.8
			c3,0,5.1,1.1,6.5,3.3v-9.3c0-0.9,0.2-1.6,0.7-2c0.5-0.5,1.1-0.7,1.9-0.7c0.8,0,1.4,0.3,1.8,0.7c0.5,0.5,0.7,1.2,0.7,2v23.8
			c0,0.9-0.3,1.6-0.8,2.1c-0.5,0.5-1.1,0.8-1.8,0.8c-0.8,0-1.4-0.2-1.8-0.7s-0.7-1-0.7-1.9V48c-1.3,2.4-3.5,3.5-6.7,3.5
			C232.6,51.6,231,51.1,229.7,50.2L229.7,50.2z M239.9,46.3c0.8-1.2,1.2-3,1.2-5.3c0-1.3-0.2-2.5-0.5-3.5c-0.4-1-0.9-1.8-1.8-2.5
			c-0.8-0.7-1.8-1-3.1-1c-0.9,0-1.7,0.2-2.4,0.6c-0.7,0.4-1.2,0.9-1.6,1.6c-0.4,0.7-0.7,1.4-0.9,2.2c-0.2,0.8-0.3,1.6-0.3,2.6
			c0,0.9,0.1,1.7,0.3,2.5c0.2,0.8,0.5,1.5,0.8,2.3c0.4,0.7,0.9,1.3,1.6,1.8c0.7,0.5,1.5,0.7,2.5,0.7
			C237.7,48.1,239.1,47.5,239.9,46.3z"/>
		<path d="M252.2,25.9c-0.5-0.5-0.8-1.2-0.8-2.1s0.3-1.5,0.8-2c0.6-0.5,1.3-0.8,2.2-0.8c0.9,0,1.6,0.3,2.2,0.8
			c0.5,0.5,0.8,1.2,0.8,2s-0.3,1.5-0.9,2.1c-0.5,0.5-1.2,0.8-2.2,0.8C253.5,26.7,252.8,26.4,252.2,25.9z M252.5,50.5
			c-0.5-0.5-0.7-1.2-0.7-2.1V33.7c0-0.9,0.3-1.6,0.7-2.1c0.5-0.5,1.1-0.7,1.8-0.7c0.8,0,1.4,0.3,1.9,0.7c0.5,0.5,0.7,1.2,0.7,2.1
			v14.8c0,0.9-0.2,1.6-0.7,2.1s-1.1,0.8-1.9,0.8C253.6,51.3,253,51,252.5,50.5z"/>
		<path d="M267.7,45.9c1,1.2,2.3,1.8,4.1,1.8c1.7,0,3.1-0.3,4.1-1c0.3-0.2,0.7-0.3,1-0.3c0.4,0,0.8,0.2,1.1,0.5
			c0.3,0.3,0.5,0.7,0.5,1.2c0,0.6-0.3,1.2-0.8,1.6c-0.6,0.5-1.4,1-2.5,1.3c-1.1,0.3-2.4,0.5-3.9,0.5c-3,0-5.5-1-7.4-2.9
			c-1.9-2-2.9-4.5-2.9-7.6c0-1.9,0.4-3.7,1.3-5.3c0.9-1.6,2.1-2.9,3.7-3.8c1.6-1,3.4-1.4,5.4-1.4c2.4,0,4.3,0.5,5.8,1.6
			c0.6,0.5,0.9,1,0.9,1.6c0,0.5-0.1,0.9-0.5,1.2c-0.3,0.3-0.7,0.5-1.2,0.5c-0.3,0-0.7-0.1-1-0.3c-1.2-0.6-2.4-0.9-3.6-0.9
			c-1.8,0-3.1,0.6-4.2,1.8c-1,1.2-1.5,2.9-1.5,4.9C266.2,43,266.7,44.7,267.7,45.9L267.7,45.9z"/>
		<path d="M287,50.6c-1.4-0.6-2.5-1.4-3.3-2.4c-0.9-1-1.5-2.1-1.9-3.3c-0.4-1.2-0.7-2.5-0.7-3.9c0-1.1,0.1-2.2,0.4-3.2
			c0.3-1,0.7-2,1.3-2.9c0.6-0.9,1.2-1.7,2.1-2.4c0.9-0.7,1.8-1.2,3-1.6c1.2-0.4,2.5-0.6,3.9-0.6s2.7,0.2,3.9,0.5
			c1.2,0.4,2.2,0.9,3,1.5c0.8,0.7,1.5,1.4,2.1,2.3c0.6,0.9,1,1.8,1.3,2.9c0.3,1,0.4,2.1,0.4,3.3c0,1.1-0.1,2.1-0.4,3.1
			c-0.3,1-0.7,2-1.2,2.9c-0.5,0.9-1.2,1.7-2.1,2.4c-0.8,0.7-1.8,1.2-3,1.6c-1.2,0.4-2.5,0.6-4,0.6C290,51.5,288.4,51.2,287,50.6z
			 M296,46.2c1-1.2,1.5-2.9,1.5-5.1c0-2.2-0.5-4-1.5-5.2c-1-1.2-2.4-1.8-4.1-1.8c-1.8,0-3.1,0.6-4.1,1.8c-1,1.2-1.5,3-1.5,5.2
			c0,2.2,0.5,3.9,1.5,5.1c1,1.2,2.4,1.8,4.1,1.8C293.6,48,295,47.4,296,46.2z"/>
		<path class="st3" d="M128.8,72.9c-0.1-0.1-0.2-0.3-0.2-0.5v-7.2h-1.3c-0.3,0-0.5-0.1-0.5-0.4s0.2-0.4,0.5-0.4h1.3v-1.2
			c0-0.5,0.1-0.9,0.1-1.2c0.1-0.3,0.2-0.6,0.3-0.8c0.1-0.2,0.3-0.4,0.5-0.5s0.4-0.2,0.6-0.3c0.2,0,0.5-0.1,0.7-0.1h1.1
			c0.1,0,0.2,0.1,0.3,0.1c0.1,0.1,0.1,0.2,0.1,0.3s-0.1,0.3-0.1,0.3c-0.1,0.1-0.2,0.1-0.3,0.1h-0.8c-0.4,0-0.6,0.1-0.8,0.2
			c-0.2,0.1-0.3,0.3-0.4,0.7c-0.1,0.3-0.1,0.9-0.1,1.6v0.6h1.6c0.3,0,0.5,0.1,0.5,0.4c0,0.1,0,0.3-0.1,0.3c-0.1,0.1-0.2,0.1-0.4,0.1
			h-1.6v7.2c0,0.2-0.1,0.3-0.2,0.5c-0.1,0.1-0.3,0.2-0.5,0.2C129.1,73.1,128.9,73,128.8,72.9z"/>
		<path class="st3" d="M134.1,61.8c-0.2-0.2-0.3-0.4-0.3-0.6s0.1-0.5,0.3-0.6c0.2-0.1,0.4-0.2,0.7-0.2c0.3,0,0.5,0.1,0.7,0.2
			c0.2,0.2,0.3,0.4,0.3,0.6s-0.1,0.5-0.3,0.6c-0.2,0.1-0.4,0.2-0.7,0.2C134.5,62.1,134.3,62,134.1,61.8z M134.3,72.9
			c-0.1-0.1-0.2-0.3-0.2-0.5v-7.5c0-0.2,0.1-0.4,0.2-0.5c0.1-0.1,0.3-0.2,0.5-0.2c0.2,0,0.3,0.1,0.4,0.2c0.1,0.1,0.2,0.3,0.2,0.5
			v7.5c0,0.2-0.1,0.4-0.2,0.5c-0.1,0.1-0.3,0.2-0.5,0.2C134.6,73.1,134.4,73,134.3,72.9z"/>
		<path class="st3" d="M138.5,72.9c-0.1-0.1-0.2-0.3-0.2-0.5v-7.5c0-0.2,0.1-0.3,0.2-0.4c0.1-0.1,0.3-0.2,0.5-0.2
			c0.2,0,0.3,0.1,0.5,0.1c0.1,0.1,0.2,0.3,0.2,0.5v1c0.2-0.6,0.6-1,1.1-1.3c0.5-0.3,1.1-0.5,1.8-0.5c1,0,1.8,0.3,2.4,0.9
			c0.6,0.6,0.9,1.4,0.9,2.6v4.9c0,0.2-0.1,0.3-0.2,0.5c-0.1,0.1-0.3,0.2-0.5,0.2c-0.2,0-0.3-0.1-0.5-0.2c-0.1-0.1-0.2-0.3-0.2-0.5
			v-4.9c0-1.7-0.7-2.5-2.2-2.5c-0.7,0-1.3,0.2-1.8,0.7c-0.5,0.5-0.7,1.1-0.8,2v4.8c0,0.2-0.1,0.3-0.2,0.5c-0.1,0.1-0.3,0.2-0.5,0.2
			C138.8,73.1,138.6,73,138.5,72.9L138.5,72.9z"/>
		<path class="st3" d="M149.9,72.9c-0.5-0.3-0.9-0.6-1.2-1c-0.3-0.4-0.5-0.9-0.7-1.5c-0.1-0.5-0.2-1.1-0.2-1.8
			c0-0.6,0.1-1.2,0.3-1.7c0.2-0.5,0.4-1,0.8-1.4c0.3-0.4,0.7-0.8,1.2-1c0.5-0.3,1.1-0.4,1.7-0.4c0.7,0,1.3,0.2,1.8,0.5
			c0.5,0.3,0.9,0.8,1.2,1.4V61c0-0.2,0.1-0.3,0.2-0.4c0.1-0.1,0.3-0.2,0.5-0.2c0.2,0,0.3,0.1,0.5,0.2c0.1,0.1,0.2,0.3,0.2,0.4v11.4
			c0,0.2-0.1,0.3-0.2,0.4c-0.1,0.1-0.3,0.1-0.5,0.1c-0.2,0-0.4-0.1-0.5-0.2c-0.1-0.1-0.1-0.2-0.1-0.4v-1c-0.3,0.6-0.7,1.1-1.2,1.4
			c-0.5,0.3-1.2,0.5-1.9,0.5C151,73.2,150.4,73.1,149.9,72.9L149.9,72.9z M153.1,72c0.4-0.2,0.7-0.5,0.9-0.8
			c0.2-0.4,0.4-0.8,0.5-1.2c0.1-0.4,0.2-0.9,0.2-1.4c0-0.5-0.1-0.9-0.2-1.3c-0.1-0.4-0.3-0.8-0.5-1.2c-0.2-0.3-0.5-0.6-0.9-0.8
			c-0.4-0.2-0.8-0.3-1.3-0.3c-0.4,0-0.7,0.1-1,0.2c-0.3,0.2-0.6,0.3-0.8,0.6s-0.4,0.5-0.5,0.9c-0.1,0.3-0.3,0.7-0.3,1
			c-0.1,0.3-0.1,0.7-0.1,1c0,0.5,0.1,0.9,0.1,1.3c0.1,0.4,0.2,0.8,0.4,1.2c0.2,0.4,0.5,0.7,0.8,0.9c0.3,0.2,0.8,0.3,1.2,0.4
			C152.3,72.3,152.8,72.2,153.1,72z"/>
		<path class="st3" d="M164.7,70.5v-5.3h-1.2c-0.3,0-0.5-0.1-0.5-0.4s0.2-0.4,0.5-0.4h1.2l0.1-2.6c0-0.1,0.1-0.3,0.2-0.4
			c0.1-0.1,0.3-0.2,0.4-0.2c0.1,0,0.3,0.1,0.4,0.2c0.1,0.1,0.1,0.2,0.1,0.4v2.6h1.7c0.3,0,0.5,0.1,0.5,0.4s-0.2,0.4-0.5,0.4H166v5.2
			c0,0.7,0.1,1.1,0.3,1.4c0.2,0.3,0.5,0.4,0.9,0.4h0.1l0.6,0h0c0.2,0,0.3,0.1,0.4,0.2c0.1,0.1,0.1,0.2,0.1,0.3
			c0,0.2-0.1,0.4-0.3,0.5c-0.2,0.1-0.5,0.1-0.8,0.1c-0.1,0-0.1,0-0.3,0c-0.1,0-0.2,0-0.3,0C165.4,73.2,164.7,72.3,164.7,70.5z"/>
		<path class="st3" d="M170.6,72.9c-0.1-0.1-0.2-0.3-0.2-0.4v-7.6c0-0.2,0.1-0.3,0.2-0.4c0.1-0.1,0.3-0.1,0.5-0.1
			c0.2,0,0.3,0,0.5,0.1c0.1,0.1,0.2,0.3,0.2,0.5v1c0.1-0.5,0.4-1,0.9-1.4c0.4-0.4,1-0.6,1.7-0.6c0.1,0,0.3,0.1,0.3,0.2
			c0.1,0.1,0.1,0.3,0.1,0.4c0,0.1,0,0.3-0.1,0.4c-0.1,0.1-0.2,0.1-0.4,0.1c-0.4,0-0.8,0.1-1.2,0.2c-0.3,0.2-0.6,0.3-0.8,0.6
			c-0.2,0.3-0.3,0.5-0.4,0.8c-0.1,0.3-0.1,0.5-0.1,0.8v5c0,0.2-0.1,0.3-0.2,0.4s-0.3,0.2-0.5,0.2C170.9,73.1,170.8,73,170.6,72.9
			L170.6,72.9z"/>
		<path class="st3" d="M177.4,72.4c-0.6-0.6-0.9-1.4-0.9-2.6v-4.9c0-0.2,0.1-0.3,0.2-0.5c0.1-0.1,0.3-0.1,0.5-0.1
			c0.2,0,0.3,0,0.5,0.1c0.1,0.1,0.2,0.3,0.2,0.5v4.9c0,1.7,0.7,2.6,2.2,2.6c0.7,0,1.3-0.3,1.8-0.7c0.5-0.5,0.8-1.1,0.8-2v-4.7
			c0-0.2,0.1-0.3,0.2-0.5c0.1-0.1,0.3-0.1,0.5-0.1c0.2,0,0.3,0,0.5,0.1c0.1,0.1,0.2,0.3,0.2,0.5v7.5c0,0.2-0.1,0.3-0.2,0.5
			c-0.1,0.1-0.3,0.2-0.5,0.2c-0.2,0-0.3-0.1-0.5-0.2c-0.1-0.1-0.2-0.3-0.2-0.4v-1c-0.2,0.6-0.6,1-1.1,1.4c-0.5,0.3-1.1,0.5-1.8,0.5
			C178.7,73.2,178,72.9,177.4,72.4L177.4,72.4z"/>
		<path class="st3" d="M191.5,64.3c0.5,0.1,0.9,0.3,1.2,0.5c0.2,0.1,0.3,0.3,0.3,0.4c0,0.1,0,0.2-0.1,0.3c-0.1,0.1-0.2,0.1-0.3,0.1
			c-0.1,0-0.1,0-0.2,0c-0.1,0-0.1-0.1-0.3-0.1c-0.1-0.1-0.3-0.1-0.4-0.2c-0.1,0-0.3-0.1-0.5-0.1c-0.2-0.1-0.4-0.1-0.6-0.1
			c-0.2,0-0.4-0.1-0.6-0.1c-1.6,0-2.3,0.5-2.3,1.4c0,0.4,0.1,0.7,0.3,0.8c0.2,0.2,0.7,0.3,1.4,0.5l1.6,0.4c0.9,0.2,1.5,0.5,1.8,0.9
			c0.3,0.4,0.5,0.9,0.5,1.5c0,0.9-0.3,1.6-0.9,2c-0.6,0.5-1.5,0.7-2.5,0.7c-0.6,0-1.2-0.1-1.8-0.3c-0.6-0.2-1.1-0.4-1.4-0.7
			c-0.1-0.1-0.2-0.3-0.2-0.4c0-0.1,0-0.2,0.1-0.3c0.1-0.1,0.2-0.1,0.3-0.1c0.1,0,0.2,0,0.4,0.1c0.8,0.5,1.7,0.8,2.7,0.8
			c0.7,0,1.2-0.1,1.6-0.4c0.4-0.3,0.6-0.7,0.6-1.2c0-0.4-0.1-0.7-0.3-1c-0.2-0.3-0.6-0.4-1.2-0.6l-1.7-0.4c-0.4-0.1-0.7-0.2-0.9-0.2
			c-0.2-0.1-0.5-0.2-0.7-0.3c-0.3-0.1-0.4-0.3-0.6-0.4c-0.1-0.2-0.2-0.3-0.3-0.6c-0.1-0.3-0.1-0.5-0.1-0.8c0-0.4,0.1-0.8,0.3-1.1
			c0.2-0.3,0.5-0.6,0.8-0.7c0.3-0.2,0.7-0.3,1.1-0.4c0.4-0.1,0.8-0.1,1.3-0.1C190.5,64.1,191,64.2,191.5,64.3z"/>
		<path class="st3" d="M196.4,70.5v-5.3h-1.2c-0.3,0-0.5-0.1-0.5-0.4s0.2-0.4,0.5-0.4h1.2l0.1-2.6c0-0.1,0.1-0.3,0.2-0.4
			c0.1-0.1,0.3-0.2,0.4-0.2c0.1,0,0.3,0.1,0.4,0.2c0.1,0.1,0.1,0.2,0.1,0.4v2.6h1.7c0.3,0,0.5,0.1,0.5,0.4s-0.2,0.4-0.5,0.4h-1.7
			v5.2c0,0.7,0.1,1.1,0.3,1.4c0.2,0.3,0.5,0.4,0.9,0.4h0.1l0.6,0h0c0.2,0,0.3,0.1,0.4,0.2c0.1,0.1,0.1,0.2,0.1,0.3
			c0,0.2-0.1,0.4-0.3,0.5c-0.2,0.1-0.5,0.1-0.8,0.1c-0.1,0-0.1,0-0.3,0c-0.1,0-0.2,0-0.3,0C197.1,73.2,196.4,72.3,196.4,70.5z"/>
		<path class="st3" d="M205.8,73.2c-1.2,0-2.2-0.4-3-1.2c-0.8-0.8-1.2-1.9-1.2-3.3c0-0.9,0.2-1.6,0.5-2.3c0.3-0.7,0.8-1.2,1.5-1.7
			c0.7-0.4,1.4-0.7,2.3-0.7c0.5,0,1,0.1,1.5,0.2c0.5,0.2,0.8,0.4,1.1,0.6c0.3,0.3,0.5,0.6,0.7,1c0.2,0.4,0.4,0.8,0.5,1.2
			c0.1,0.4,0.1,0.9,0.1,1.3c0,0.1,0,0.2-0.1,0.3c-0.1,0.1-0.2,0.1-0.4,0.1h-6.3c0,1.1,0.3,1.9,0.9,2.5c0.6,0.6,1.3,0.9,2.2,0.9
			c0.6,0,1.1-0.1,1.6-0.3c0.4-0.2,0.9-0.5,1.3-0.8c0.1-0.1,0.2-0.1,0.3-0.1s0.2,0.1,0.3,0.1c0.1,0.1,0.1,0.2,0.1,0.3
			c0,0.2-0.1,0.3-0.2,0.5c-0.4,0.4-0.9,0.7-1.4,1C207.3,73.1,206.6,73.2,205.8,73.2L205.8,73.2L205.8,73.2L205.8,73.2z M208.6,68
			c-0.1-0.9-0.3-1.6-0.8-2.2c-0.4-0.6-1.1-0.9-2-0.9s-1.6,0.3-2.1,0.9c-0.5,0.6-0.8,1.3-0.9,2.2H208.6L208.6,68L208.6,68z"/>
		<path class="st3" d="M213.7,72.9c-0.5-0.3-0.9-0.6-1.2-1c-0.3-0.4-0.5-0.9-0.7-1.5c-0.1-0.5-0.2-1.1-0.2-1.8
			c0-0.6,0.1-1.2,0.3-1.7c0.2-0.5,0.4-1,0.7-1.4c0.3-0.4,0.7-0.8,1.2-1c0.5-0.3,1.1-0.4,1.7-0.4c0.7,0,1.3,0.2,1.8,0.5
			c0.5,0.3,0.9,0.8,1.2,1.4V61c0-0.2,0.1-0.3,0.2-0.4c0.1-0.1,0.3-0.2,0.5-0.2c0.2,0,0.3,0.1,0.5,0.2c0.1,0.1,0.2,0.3,0.2,0.4v11.4
			c0,0.2-0.1,0.3-0.2,0.4c-0.1,0.1-0.3,0.1-0.5,0.1c-0.2,0-0.4-0.1-0.5-0.2c-0.1-0.1-0.1-0.2-0.1-0.4v-1c-0.3,0.6-0.7,1.1-1.2,1.4
			c-0.6,0.3-1.2,0.5-1.9,0.5C214.7,73.2,214.2,73.1,213.7,72.9L213.7,72.9z M216.9,72c0.4-0.2,0.7-0.5,0.9-0.8
			c0.2-0.4,0.4-0.8,0.5-1.2c0.1-0.4,0.1-0.9,0.1-1.4c0-0.5,0-0.9-0.1-1.3c-0.1-0.4-0.3-0.8-0.5-1.2c-0.2-0.3-0.5-0.6-0.9-0.8
			c-0.4-0.2-0.8-0.3-1.3-0.3c-0.4,0-0.7,0.1-1.1,0.2c-0.3,0.2-0.6,0.3-0.8,0.6c-0.2,0.3-0.4,0.5-0.5,0.9c-0.1,0.3-0.2,0.7-0.3,1
			c-0.1,0.3-0.1,0.7-0.1,1c0,0.5,0.1,0.9,0.1,1.3c0.1,0.4,0.2,0.8,0.4,1.2c0.2,0.4,0.5,0.7,0.8,0.9c0.4,0.2,0.8,0.3,1.2,0.4
			C216,72.3,216.5,72.2,216.9,72z"/>
		<path class="st3" d="M228.5,72.9c-0.1-0.1-0.2-0.3-0.2-0.5V61.1c0-0.2,0.1-0.4,0.2-0.5c0.1-0.1,0.3-0.2,0.5-0.2
			c0.2,0,0.4,0.1,0.5,0.2s0.2,0.3,0.2,0.5v11.3c0,0.2-0.1,0.4-0.2,0.5c-0.1,0.1-0.3,0.2-0.5,0.2S228.6,73,228.5,72.9z"/>
		<path class="st3" d="M236.4,72.9c-0.6-0.2-1.2-0.5-1.6-0.9c-0.5-0.4-0.8-0.9-1.1-1.4c-0.3-0.5-0.6-1.1-0.7-1.8
			c-0.1-0.6-0.2-1.3-0.2-2c0-0.9,0.1-1.7,0.4-2.4c0.2-0.8,0.6-1.4,1.1-2.1c0.5-0.6,1.1-1.1,1.8-1.4c0.8-0.4,1.6-0.5,2.6-0.5
			c1.2,0,2.2,0.3,3.2,0.9c0.2,0.1,0.3,0.3,0.3,0.5c0,0.1-0.1,0.3-0.1,0.4c-0.1,0.1-0.2,0.2-0.4,0.2c-0.1,0-0.2,0-0.3-0.1l-0.1-0.1
			c-0.1-0.1-0.2-0.1-0.2-0.1c0,0-0.1-0.1-0.2-0.1s-0.2-0.1-0.3-0.1c-0.1,0-0.2,0-0.3-0.1c-0.1,0-0.3-0.1-0.4-0.1
			c-0.1,0-0.3-0.1-0.5-0.1c-0.2,0-0.4,0-0.6,0c-0.7,0-1.2,0.1-1.7,0.3c-0.5,0.2-0.9,0.5-1.2,0.8s-0.6,0.7-0.8,1.2s-0.4,0.9-0.5,1.4
			c-0.1,0.5-0.1,1-0.1,1.5c0,0.5,0.1,1.1,0.1,1.6c0.1,0.5,0.3,1,0.5,1.4c0.2,0.5,0.5,0.9,0.8,1.2c0.3,0.3,0.8,0.6,1.3,0.8
			c0.5,0.2,1.1,0.3,1.7,0.3c0.5,0,1-0.1,1.4-0.2c0.4-0.1,0.9-0.4,1.3-0.7c0.1-0.1,0.2-0.1,0.3-0.1c0.1,0,0.3,0,0.4,0.1
			c0.1,0.1,0.1,0.2,0.1,0.3c0,0.3-0.1,0.5-0.4,0.7c-1,0.6-2.1,0.9-3.3,0.9C237.7,73.2,237,73.1,236.4,72.9z"/>
		<path class="st3" d="M246.3,71.5c-1.1-1.1-1.6-2.7-1.6-4.7c0-2,0.5-3.5,1.6-4.7c1-1.2,2.5-1.7,4.3-1.7s3.2,0.6,4.3,1.7
			c1,1.2,1.6,2.7,1.6,4.7c0,2-0.5,3.5-1.6,4.7c-1,1.2-2.5,1.7-4.3,1.7S247.4,72.7,246.3,71.5z M253.8,70.7c0.8-1,1.2-2.2,1.2-3.9
			c0-1.7-0.4-2.9-1.2-3.9c-0.8-0.9-1.8-1.4-3.2-1.4s-2.4,0.5-3.2,1.4c-0.8,0.9-1.2,2.2-1.2,3.9c0,1.6,0.4,2.9,1.2,3.9
			c0.8,0.9,1.8,1.4,3.2,1.4S253,71.6,253.8,70.7z"/>
	</g>
</g>
<g id="Layer_2">
	<g>
		<path class="st4" d="M318,21.8l-0.8,6.5h-0.8l0.6-5.1l-2.4,3.5l-0.8-3.5l-1.8,5.1h-0.8l2.3-6.5h0.8L315,25l2.2-3.1H318z
			 M311.9,21.8h-4.1l-0.2,0.8h1.6l-1.3,5.7h0.8l1.3-5.7h1.6L311.9,21.8z"/>
		<path class="st4" d="M174.3,53.7c-1,4.4-4.1,17.7-4.1,17.7h-6.3c0,0,3.1-13.2,4.1-17.7c1.7-7.7-0.8-9.6-3.8-9.6
			c-3.7,0-6.4,2.1-9.2,5.6l-5.1,21.6h-6.3l7.6-32.5h6.3l-0.7,2.8c0,0,3.8-3.5,9.3-3.5C171.7,38.2,177.3,40.8,174.3,53.7z M75,21.8
			H18.6l-1.4,5.9h37.6L44.6,71.3h6.3l10.2-43.6h12.5L75,21.8z M120.8,38.8h-7.7l-11.7,11.3l6.6-28.4h-6.3L90.3,71.3h6.3l3.7-15.7
			l6.8,15.7h6.3l-7.6-17.7L120.8,38.8z M143,50.8c-3,5.2-10.4,8.2-20.6,6.1c-1.3,8.7,4.5,9.6,9.4,9.1c2.2-0.2,5-0.8,8.4-2.2
			l-1.3,5.6c-3.8,1.7-7.3,2.5-10.5,2.5c-8,0-12.8-5.1-12.2-14.1c0.7-10.5,8.6-19.8,19-19.8C144.2,38.2,146.3,45.2,143,50.8z
			 M137.2,49.2c2.5-2.9,1.2-6.5-5.2-4.8c-3.2,0.9-6.1,3.7-7.9,7.1C130.7,52.9,135.2,51.6,137.2,49.2z M82.8,67.7
			c-7.2,6.2-19.6,6.2-22.7-3.3c-1.8-5.8-0.3-16.4,7.7-22.5c7.1-5.5,19.2-5.4,22,4.2C91.3,51.2,90.3,61.3,82.8,67.7z M83.7,47.8
			c-1.4-4-8.2-5.5-13.5-0.2c-3.1,3.2-6,9.8-4.2,14.8c1.2,3.5,7.7,5.9,13.5,0.2C82.7,59.4,85.5,52.8,83.7,47.8z"/>
		<path class="st4" d="M218.7,46.8c-5.8,24.9-22.3,24.6-25.7,24.6c-0.8,0-16.3,0-16.3,0l7.6-32.5h6.3l-6.2,26.6c0,0,8.8,0,9.3,0
			c11.2,0,16.6-9.2,19-18.6c2.7-10.8,1.9-19.1-9.1-19.1c-1.8,0-49.6,0-49.6,0l1.4-5.9c0,0,45.9,0,47.6,0
			C206.3,21.8,224.5,21.8,218.7,46.8z M238.6,38.2c-10.4,0-18.3,9.3-19,19.8c-0.6,9,4.2,14.1,12.2,14.1c3.2,0,6.7-0.8,10.5-2.5
			l1.3-5.6c-3.4,1.4-6.2,1.9-8.4,2.2c-4.9,0.5-10.7-0.4-9.4-9.1c10.2,2.1,17.7-0.9,20.6-6.1C249.8,45.2,247.7,38.2,238.6,38.2z
			 M227.7,51.5c1.8-3.4,4.7-6.2,7.9-7.1c6.4-1.8,7.7,1.9,5.2,4.8C238.7,51.6,234.2,52.9,227.7,51.5z M261.9,71.2
			c4.1-1.4,6.8-4.4,7.7-7.9c1-4,0.7-7.4-3.6-9.8c-3.7-2.1-8.3-1.3-7.6-5c0.9-4.6,8.2-6.2,13.9-2.6l1.3-5.6c-2.1-1.4-4.7-2.1-7.9-2.1
			c-7.7,0-13.1,5-13.6,11.1c-0.4,5.4,3.3,6.8,7.1,7.8c3.3,0.8,5.1,2.1,4.3,4.9c-0.6,2-2.1,3.9-6.3,4.3c-3.4,0.3-7.1-0.5-9.1-2.8
			l-1.3,5.6C250.4,72.4,257.5,72.6,261.9,71.2z M302.6,38.8h-7.7l-11.7,11.3l6.6-28.4h-6.3L272,71.3h6.3l3.7-15.7l6.8,15.7h6.3
			l-7.6-17.7L302.6,38.8z"/>
	</g>
</g>
</svg>
