<?xml version="1.0" encoding="iso-8859-1"?>
<!-- Generator: Adobe Illustrator 19.0.0, SVG Export Plug-In . SVG Version: 6.00 Build 0)  -->
<svg version="1.1" id="Layer_1" xmlns="http://www.w3.org/2000/svg" xmlns:xlink="http://www.w3.org/1999/xlink" x="0px" y="0px"
	 viewBox="0 0 512 512" style="enable-background:new 0 0 512 512;" xml:space="preserve">
<path style="fill:#88898E;" d="M486.334,498.142l-51.2-409.6c-0.533-4.271-4.164-7.475-8.467-7.475h-102.4
	c-4.303,0-7.934,3.204-8.467,7.475l-51.2,409.6c-0.303,2.428,0.451,4.87,2.07,6.705c1.62,1.836,3.949,2.886,6.397,2.886h204.8
	c2.448,0,4.778-1.051,6.397-2.886C485.884,503.012,486.638,500.57,486.334,498.142z"/>
<path style="fill:#74757B;" d="M292.27,504.847c-1.62-1.835-2.374-4.277-2.07-6.705l51.2-409.6c0.533-4.271,4.164-7.475,8.467-7.475
	h-25.6c-4.303,0-7.934,3.204-8.467,7.475l-51.2,409.6c-0.303,2.428,0.451,4.87,2.07,6.705c1.62,1.836,3.949,2.886,6.397,2.886h25.6
	C296.219,507.733,293.889,506.683,292.27,504.847z"/>
<path style="fill:#EBEBEC;" d="M374.033,494.467l-170.667-256c-2.086-3.129-5.969-4.522-9.573-3.435
	c-3.598,1.09-6.06,4.407-6.06,8.167v99.817l-69.7-104.55c-2.085-3.129-5.97-4.522-9.573-3.435c-3.598,1.091-6.06,4.409-6.06,8.169
	v99.817l-69.7-104.55c-2.085-3.129-5.969-4.522-9.573-3.435c-3.598,1.091-6.06,4.409-6.06,8.169v256
	c0,4.713,3.821,8.533,8.533,8.533h85.333h85.333H281.6h85.333c3.147,0,6.038-1.732,7.524-4.508
	C375.941,500.452,375.779,497.086,374.033,494.467z"/>
<path style="fill:#FDD042;" d="M503.467,345.6H8.533C3.821,345.6,0,349.421,0,354.133V499.2c0,4.713,3.821,8.533,8.533,8.533
	h494.933c4.713,0,8.533-3.821,8.533-8.533V354.133C512,349.421,508.179,345.6,503.467,345.6z"/>
<path style="fill:#F2C127;" d="M25.6,499.2V354.133c0-4.713,3.821-8.533,8.533-8.533h-25.6C3.821,345.6,0,349.421,0,354.133V499.2
	c0,4.713,3.821,8.533,8.533,8.533h25.6C29.421,507.733,25.6,503.913,25.6,499.2z"/>
<g>
	<path style="fill:#74757B;" d="M76.8,362.667H42.667c-4.713,0-8.533,3.821-8.533,8.533v34.133c0,4.713,3.821,8.533,8.533,8.533
		H76.8c4.713,0,8.533-3.821,8.533-8.533V371.2C85.333,366.487,81.513,362.667,76.8,362.667z"/>
	<path style="fill:#74757B;" d="M469.333,362.667H435.2c-4.713,0-8.533,3.821-8.533,8.533v34.133c0,4.713,3.821,8.533,8.533,8.533
		h34.133c4.713,0,8.533-3.821,8.533-8.533V371.2C477.867,366.487,474.046,362.667,469.333,362.667z"/>
	<path style="fill:#74757B;" d="M273.067,362.667h-34.133c-4.713,0-8.533,3.821-8.533,8.533v34.133c0,4.713,3.821,8.533,8.533,8.533
		h34.133c4.713,0,8.533-3.821,8.533-8.533V371.2C281.6,366.487,277.779,362.667,273.067,362.667z"/>
	<path style="fill:#74757B;" d="M375.467,362.667h-34.133c-4.713,0-8.533,3.821-8.533,8.533v34.133c0,4.713,3.821,8.533,8.533,8.533
		h34.133c4.713,0,8.533-3.821,8.533-8.533V371.2C384,366.487,380.179,362.667,375.467,362.667z"/>
	<path style="fill:#74757B;" d="M170.667,362.667h-34.133c-4.713,0-8.533,3.821-8.533,8.533v34.133c0,4.713,3.821,8.533,8.533,8.533
		h34.133c4.713,0,8.533-3.821,8.533-8.533V371.2C179.2,366.487,175.379,362.667,170.667,362.667z"/>
	<path style="fill:#74757B;" d="M76.8,439.467H42.667c-4.713,0-8.533,3.821-8.533,8.533v34.133c0,4.713,3.821,8.533,8.533,8.533
		H76.8c4.713,0,8.533-3.821,8.533-8.533V448C85.333,443.287,81.513,439.467,76.8,439.467z"/>
	<path style="fill:#74757B;" d="M469.333,439.467H435.2c-4.713,0-8.533,3.821-8.533,8.533v34.133c0,4.713,3.821,8.533,8.533,8.533
		h34.133c4.713,0,8.533-3.821,8.533-8.533V448C477.867,443.287,474.046,439.467,469.333,439.467z"/>
	<path style="fill:#74757B;" d="M273.067,439.467h-34.133c-4.713,0-8.533,3.821-8.533,8.533v34.133c0,4.713,3.821,8.533,8.533,8.533
		h34.133c4.713,0,8.533-3.821,8.533-8.533V448C281.6,443.287,277.779,439.467,273.067,439.467z"/>
	<path style="fill:#74757B;" d="M375.467,439.467h-34.133c-4.713,0-8.533,3.821-8.533,8.533v34.133c0,4.713,3.821,8.533,8.533,8.533
		h34.133c4.713,0,8.533-3.821,8.533-8.533V448C384,443.287,380.179,439.467,375.467,439.467z"/>
	<path style="fill:#74757B;" d="M170.667,439.467h-34.133c-4.713,0-8.533,3.821-8.533,8.533v34.133c0,4.713,3.821,8.533,8.533,8.533
		h34.133c4.713,0,8.533-3.821,8.533-8.533V448C179.2,443.287,175.379,439.467,170.667,439.467z"/>
</g>
<path style="fill:#EBEBEC;" d="M401.067,21.333c-3.193,0-6.169,0.893-8.724,2.418c0.113-0.793,0.191-1.596,0.191-2.418
	c0-9.425-7.641-17.067-17.067-17.067c-9.426,0-17.067,7.642-17.067,17.067c0,0.822,0.078,1.626,0.191,2.418
	c-2.556-1.525-5.532-2.418-8.724-2.418c-9.426,0-17.067,7.642-17.067,17.067s7.641,17.067,17.067,17.067h51.2
	c9.426,0,17.067-7.642,17.067-17.067S410.493,21.333,401.067,21.333z"/>
<path style="fill:#D7D8D9;" d="M409.6,46.933h-51.2c-9.426,0-17.067-7.642-17.067-17.067c0-2.502,0.551-4.871,1.52-7.013
	C336.929,25.531,332.8,31.477,332.8,38.4c0,9.425,7.641,17.067,17.067,17.067h51.2c6.923,0,12.869-4.13,15.547-10.053
	C414.473,46.381,412.102,46.933,409.6,46.933z"/>
<path style="fill:#EBEBEC;" d="M238.933,72.533c-3.193,0-6.169,0.893-8.724,2.418c0.113-0.793,0.191-1.596,0.191-2.418
	c0-9.425-7.641-17.067-17.067-17.067c-9.426,0-17.067,7.642-17.067,17.067c0,0.822,0.078,1.626,0.191,2.418
	c-2.556-1.525-5.532-2.418-8.724-2.418c-9.426,0-17.067,7.642-17.067,17.067s7.641,17.067,17.067,17.067h51.2
	c9.426,0,17.067-7.642,17.067-17.067S248.359,72.533,238.933,72.533z"/>
<path style="fill:#D7D8D9;" d="M247.467,98.133h-51.2c-9.426,0-17.067-7.642-17.067-17.067c0-2.502,0.551-4.871,1.52-7.013
	c-5.924,2.677-10.053,8.624-10.053,15.547c0,9.425,7.641,17.067,17.067,17.067h51.2c6.923,0,12.869-4.13,15.547-10.053
	C252.339,97.581,249.969,98.133,247.467,98.133z"/>
<path style="fill:#EBEBEC;" d="M85.333,115.2c-3.193,0-6.169,0.893-8.724,2.418c0.113-0.793,0.191-1.596,0.191-2.418
	c0-9.425-7.641-17.067-17.067-17.067s-17.067,7.642-17.067,17.067c0,0.822,0.078,1.626,0.191,2.418
	c-2.556-1.525-5.532-2.418-8.724-2.418c-9.426,0-17.067,7.642-17.067,17.067s7.641,17.067,17.067,17.067h51.2
	c9.426,0,17.067-7.642,17.067-17.067S94.759,115.2,85.333,115.2z"/>
<path style="fill:#D7D8D9;" d="M93.867,140.8h-51.2c-9.426,0-17.067-7.642-17.067-17.067c0-2.502,0.551-4.871,1.52-7.013
	c-5.924,2.677-10.053,8.624-10.053,15.547c0,9.425,7.641,17.067,17.067,17.067h51.2c6.923,0,12.869-4.13,15.547-10.053
	C98.739,140.247,96.369,140.8,93.867,140.8z"/>
<g>
	<path style="fill:#E5563C;" d="M435.134,88.542c-0.533-4.271-4.164-7.475-8.467-7.475h-102.4c-4.303,0-7.934,3.204-8.467,7.475
		l-3.332,26.658h126L435.134,88.542z"/>
	<polygon style="fill:#E5563C;" points="447.001,183.467 303.934,183.467 299.667,217.6 451.267,217.6 	"/>
	<polygon style="fill:#E5563C;" points="460.867,294.4 290.067,294.4 285.801,328.533 465.134,328.533 	"/>
</g>
<g>
	<path style="fill:#CF442B;" d="M349.867,81.067h-25.6c-4.303,0-7.934,3.204-8.467,7.475l-3.332,26.658h25.6l3.332-26.658
		C341.933,84.271,345.564,81.067,349.867,81.067z"/>
	<polygon style="fill:#CF442B;" points="303.934,183.467 299.667,217.6 325.266,217.6 329.533,183.467 	"/>
	<polygon style="fill:#CF442B;" points="290.067,294.4 285.801,328.533 311.4,328.533 315.666,294.4 	"/>
</g>
<g>
</g>
<g>
</g>
<g>
</g>
<g>
</g>
<g>
</g>
<g>
</g>
<g>
</g>
<g>
</g>
<g>
</g>
<g>
</g>
<g>
</g>
<g>
</g>
<g>
</g>
<g>
</g>
<g>
</g>
</svg>
