<?xml version="1.0" encoding="utf-8"?>
<!-- Generator: Adobe Illustrator 16.0.4, SVG Export Plug-In . SVG Version: 6.00 Build 0)  -->
<!DOCTYPE svg PUBLIC "-//W3C//DTD SVG 1.1//EN" "http://www.w3.org/Graphics/SVG/1.1/DTD/svg11.dtd">
<svg version="1.1" id="Layer_1" xmlns="http://www.w3.org/2000/svg" xmlns:xlink="http://www.w3.org/1999/xlink" x="0px" y="0px"
	 width="2235px" height="720px" viewBox="0 0 2235 720" enable-background="new 0 0 2235 720" xml:space="preserve">
<g>
	<path fill="#BE202E" d="M1225.386,104.246l-1.821-5.419l-1.564-6.37l-0.881-0.917L1191.18,2.5l-82.477,38.365l-86.863-23.012
		l-23.152,97.798c-113.094,48.573-192.146,159.098-192.148,287.726c0,173.452,143.688,314.123,320.867,314.123
		c177.152,0,320.82-140.671,320.82-314.124C1448.227,263.387,1354.621,144.807,1225.386,104.246z M1013.302,182.415l28.765-121.5
		l67.691,17.942l64.293-29.907l23.336,69.383l0.701,0.735l1.26,5.078l15.106,44.921l57.03-3.783l-56.391,22.687l2.99,12.114
		l12.067-1.54l0.01,48.939l-23.389,18.672l-0.199,18.802l-53.673,62.286l-65.089,2.042l-48.804-58.802l-1.55-15.495l-29.413-19.893
		l-2.617-45.773l10.631,1.762l0.785-6.792l-61.342-18.045L1013.302,182.415z M1098.86,381.911l15.347-24.672l14.992-1.995
		l17.972,24.971l-14.993,29.959l18.971,57.938l-21.875,94.32l-26.051-97.326l9.37-54.771L1098.86,381.911z M854.967,509.055
		l31.284-122.939l82.813-25.241l-55.843-22.844l114.341-49.614l15.9,32.784l0.263-0.168l0.609,1.968l0.491,1.009l-0.123,0.178
		l87.474,282.511l63.64-288.077l0.58,0.241l19.913-30.446l105.692,36.146l-37.528,21.898l86.057,14.342l33.433,138.981
		C1285.843,745.369,966.646,739.619,854.967,509.055z"/>
	<g>
		<polygon fill="#BE202E" points="204.238,310.716 218.948,310.716 196.416,419.595 171.718,310.716 186.244,310.716 
			186.244,272.018 115.155,272.018 115.155,310.716 128.065,310.716 106.611,416.898 82.144,310.716 96.084,310.716 96.084,272.018 
			12.397,272.018 12.397,310.716 26.076,310.716 76.635,534.954 122.367,534.954 146.021,421.756 171.691,534.954 217.509,534.954 
			265.429,310.716 278.754,310.716 278.754,272.018 204.238,272.018 		"/>
		<polygon fill="#BE202E" points="293.316,310.716 318.328,310.716 318.328,492.125 293.316,492.125 293.316,530.814 
			406.52,530.814 406.52,492.125 379.881,492.125 379.881,310.716 406.52,310.716 406.52,272.018 293.316,272.018 		"/>
		<path fill="#BE202E" d="M505.585,368.243c-10.544-9.013-17.598-16.221-21.159-21.605c-3.572-5.391-5.355-11.678-5.355-18.867
			c0-5.86,1.528-10.537,4.587-14.004c3.056-3.478,7.169-5.213,12.331-5.213c7.074,0,12.535,2.819,16.377,8.458
			c3.838,5.644,5.753,16.678,5.753,33.119h38.699v-78.113h-38.699v16.203c-7.913-7.567-14.753-12.509-20.511-14.85
			c-5.762-2.34-12.48-3.514-20.155-3.514c-15.478,0-28.258,5.798-38.34,17.369C429.036,298.804,424,313.658,424,331.771
			c0,11.995,2.877,24.18,8.636,36.536c5.763,12.356,19.054,28.17,39.868,47.42c15.442,14.451,25.098,25.206,28.995,32.257
			c3.88,7.065,5.822,13.821,5.822,20.278c0,8.015-1.703,14.293-5.122,18.839c-3.417,4.548-8.192,6.82-14.312,6.82
			c-6.839,0-12.364-2.942-16.559-8.82c-4.205-5.878-6.295-18.651-6.295-38.326H426.34v84.041h38.693v-16.197
			c11.875,12.237,25.13,18.356,39.771,18.356c16.675,0,30.562-6.594,41.661-19.791c11.093-13.2,16.647-29.821,16.647-49.854
			c0-15.6-3.657-30.245-10.978-43.917C544.821,405.736,529.297,388.684,505.585,368.243z"/>
		<polygon fill="#BE202E" points="579.994,310.716 602.496,310.716 602.496,492.125 579.994,492.125 579.994,530.814 
			754.748,530.814 754.748,446.41 708.674,446.41 708.674,492.125 664.037,492.125 664.037,417.975 698.417,417.975 
			698.417,379.277 664.037,379.277 664.037,310.716 708.674,310.716 708.674,354.26 754.748,354.26 754.748,272.018 
			579.994,272.018 		"/>
		<path fill="#BE202E" d="M1659.705,467.373c3.25-14.453,4.861-33.62,4.861-57.497h-78.455v38.694h17.252
			c-0.354,28.672-7.849,43.014-22.489,43.014c-6.113,0-10.735-2.401-13.854-7.205c-3.124-4.799-5.319-13.896-6.574-27.292
			c-1.263-13.395-1.898-33.896-1.898-61.524c0-34.83,1.307-57.556,3.879-68.188c2.577-10.622,8.488-15.941,17.728-15.941
			c7.686,0,13.833,4.055,18.443,12.15c4.627,8.101,7.114,20.31,7.474,36.623h41.214v-88.188h-41.214v19.266h-0.713
			c-11.158-15.486-24.601-23.227-40.332-23.227c-23.393,0-41.559,11.792-54.52,35.366c-12.955,23.581-19.427,56.727-19.427,99.436
			c0,42.354,7.97,74.958,23.927,97.813c15.97,22.857,37.785,34.282,65.521,34.282c13.425,0,25.457-2.492,36.072-7.474
			c10.619-4.976,19.633-12.63,27.083-22.937C1651.125,494.221,1656.457,481.838,1659.705,467.373z"/>
		<path fill="#BE202E" d="M1782.692,310.716h10.986v155.46c0,20.06-6.729,30.084-20.161,30.084c-12.356,0-18.546-9.186-18.546-27.56
			V310.716h10.816v-38.698h-91.974v38.698h19.609v152.972c0,23.393,6.18,41.125,18.533,53.178
			c12.374,12.062,30.292,18.09,53.83,18.09c20.037,0,36.16-6.211,48.395-18.626c12.24-12.414,18.357-28.708,18.357-48.864V310.716
			h20.52v-38.698h-70.367L1782.692,310.716L1782.692,310.716z"/>
		<polygon fill="#BE202E" points="1914.456,492.125 1914.456,530.814 2017.584,530.814 2017.584,492.125 1997.42,492.125 
			1997.42,432.374 2049.975,310.716 2068.15,310.716 2068.15,272.018 1984.109,272.018 1984.109,310.716 2007.432,310.716 
			1974.518,387.826 1942.975,310.716 1966.107,310.716 1966.107,272.018 1866.948,272.018 1866.948,310.716 1884.582,310.716 
			1935.865,432.374 1935.865,492.125 		"/>
		<path fill="#BE202E" d="M2206.531,513.184c11.085-13.2,16.638-29.821,16.638-49.854c0-15.599-3.655-30.245-10.968-43.917
			c-7.334-13.677-22.848-30.729-46.562-51.17c-10.546-9.013-17.596-16.221-21.162-21.605c-3.568-5.391-5.35-11.678-5.35-18.867
			c0-5.86,1.529-10.537,4.595-14.004c3.045-3.478,7.156-5.213,12.317-5.213c7.08,0,12.551,2.819,16.381,8.458
			c3.84,5.643,5.766,16.678,5.766,33.119h38.676v-78.113h-38.676v16.203c-7.922-7.567-14.759-12.509-20.522-14.85
			c-5.753-2.34-12.484-3.514-20.15-3.514c-15.491,0-28.264,5.798-38.337,17.369c-10.076,11.578-15.122,26.433-15.122,44.545
			c0,11.995,2.89,24.18,8.646,36.536c5.756,12.356,19.046,28.17,39.865,47.42c15.438,14.451,25.1,25.206,28.987,32.257
			c3.884,7.065,5.836,13.821,5.836,20.278c0,8.015-1.717,14.293-5.141,18.839c-3.414,4.548-8.195,6.82-14.3,6.82
			c-6.839,0-12.371-2.942-16.554-8.82c-4.215-5.878-6.304-18.651-6.304-38.326h-38.701v84.041h38.701v-16.197
			c11.878,12.237,25.143,18.356,39.771,18.356C2181.541,532.975,2195.427,526.381,2206.531,513.184z"/>
		<path fill="#BE202E" d="M29.573,203.181c6.083,1.65,11.041,3.218,11.041,8.69c0,6.52-4.694,8.344-10.436,8.344
			c-2.346,0-4.608-0.26-6.253-0.778c-1.572-0.521-1.827-1.217-1.827-2.868v-5.304l-8.866,0.605v13.733
			c5.213,2.437,10.597,3.568,17.562,3.568c11.987,0,21.033-6.259,21.033-17.735c0-11.211-8.345-14.775-16.256-17.296
			c-6.518-2-11.562-3.478-11.562-8.872c0-5.387,4.003-7.473,9.129-7.473c1.731,0,3.994,0.174,5.649,0.695
			c1.562,0.524,1.827,1.215,1.827,2.873v5.036l8.865-0.605v-13.043c-5.213-2.431-10.606-3.56-16.341-3.56
			c-11.995,0-20.171,6.432-20.171,17.039C12.967,197.358,20.961,200.836,29.573,203.181z"/>
		<path fill="#BE202E" d="M130.899,181.533c0-1.477,0.172-2.691,1.998-2.691h6.784v39.464c0,1.735-0.869,2.259-2.527,2.436
			l-4.606,0.26v7.04h24.513v-7.39l-6.857-0.26v-41.549h5.902c2.346,0,2.528,1.041,2.528,2.691v4.087l8.864-0.61V170.24h-45.46
			v14.771l8.863,0.61v-4.088H130.899z"/>
		<path fill="#BE202E" d="M280.908,220.392l-17.733-50.153H243.27v7.037l5.479,0.521l-13.994,40.51
			c-0.615,1.649-1.137,2.259-2.614,2.436l-2.865,0.26v7.04h20.077v-7.39l-5.213-0.26l2.61-7.648h20.332l1.827,5.386
			c0.616,1.912-0.253,2.436-2.081,2.612l-3.303,0.26v7.04h22.423v-7.39l-4.958-0.26L280.908,220.392L280.908,220.392z
			 M248.834,204.743l8.088-24.77h0.256l7.823,24.77H248.834z"/>
		<path fill="#BE202E" d="M376.949,220.651l-5.648-0.26v-15.125h7.908c3.037,0,4.259,1.3,5.468,3.999l4.089,8.695
			c0.783,1.735,0.351,2.517-1.646,2.781l-2.525,0.26v7.04h21.466v-7.39l-4.948-0.174l-6.265-13.643
			c-1.294-2.959-2.599-4.44-4.946-5.304c4.779-1.918,10.428-6.609,10.428-15.299c0-11.821-8.08-15.994-20.864-15.994h-23.729v7.387
			l4.959,0.263v40.418c0,1.735-1.052,2.259-2.528,2.436l-2.865,0.26v7.04h21.648V220.651z M371.301,178.666h6.337
			c7.389,0,11.91,0.958,11.91,8.781c0,6.17-3.3,9.561-10.689,9.561H371.3L371.301,178.666L371.301,178.666z"/>
		<path fill="#BE202E" d="M480.624,181.533c0-1.477,0.167-2.691,1.995-2.691h6.782v39.464c0,1.735-0.869,2.259-2.524,2.436
			l-4.607,0.26v7.04h24.515v-7.39l-6.86-0.26v-41.549h5.902c2.349,0,2.527,1.041,2.527,2.691v4.087l8.865-0.61V170.24h-45.462
			v14.771l8.867,0.61V181.533z"/>
		<path fill="#BE202E" d="M591.604,209.785c0,13.648,7.303,19.388,21.552,19.388c13.217,0,21.828-6.609,21.828-17.997v-31.033
			c0-1.736,0.956-2.431,2.516-2.605l2.867-0.262v-7.037H619.77v7.387l5.043,0.263v31.813c0,7.128-4.354,10.605-11.308,10.605
			c-6.954,0-11.38-2.522-11.38-11.041v-28.859c0-2.174,0.955-2.695,2.6-2.87l2.867-0.262v-7.037h-21.033v7.387l5.045,0.263V209.785
			L591.604,209.785z"/>
		<path fill="#BE202E" d="M736.142,170.238h-24.865v7.387l4.959,0.263v40.418c0,1.735-1.053,2.259-2.527,2.436l-2.868,0.26v7.04
			h24.345v-7.39l-8.345-0.26V207.79h7.379c13.135,0,22.521-6.609,22.521-19.821C756.739,176.32,748.913,170.238,736.142,170.238z
			 M733.093,199.354h-6.254v-20.688h5.299c8.517,0,13.644,1.391,13.644,10.349C745.78,196.749,740.653,199.354,733.093,199.354z"/>
	</g>
</g>
</svg>
