<?xml version="1.0" encoding="utf-8"?>
<!-- Generator: Adobe Illustrator 21.0.2, SVG Export Plug-In . SVG Version: 6.00 Build 0)  -->
<svg version="1.1" id="Layer_1" xmlns="http://www.w3.org/2000/svg" xmlns:xlink="http://www.w3.org/1999/xlink" x="0px" y="0px"
	 viewBox="0 0 1366 768" style="enable-background:new 0 0 1366 768;" xml:space="preserve">
<style type="text/css">
	.st0{fill:#4BB20F;}
</style>
<g>
	<path d="M32.3,614.6l107.9-124.2H36.4v-52.9h191.7v42.3L120.7,604h111.1v52.9H32.3V614.6z"/>
	<path d="M349.1,435c77.3,0,115.6,50.9,110.7,131.1H305.5c6.9,26.1,25.6,40.7,51.7,40.7c19.1,0,37.9-7.7,52.5-22.4l37,36.2
		c-22.4,24.4-55.4,38.7-95.7,38.7c-71.7,0-116.4-44.8-116.4-111.5C234.7,479.8,281.1,435,349.1,435z M392.2,528.3
		c0-26.9-17.1-44.4-42.3-44.4c-24.4,0-41.1,17.9-45.6,44.4H392.2z"/>
	<path d="M576.6,435c77.3,0,115.6,50.9,110.7,131.1H533.1c6.9,26.1,25.6,40.7,51.7,40.7c19.1,0,37.9-7.7,52.5-22.4l37,36.2
		c-22.4,24.4-55.4,38.7-95.7,38.7c-71.7,0-116.4-44.8-116.4-111.5C462.2,479.8,508.6,435,576.6,435z M619.8,528.3
		c0-26.9-17.1-44.4-42.3-44.4c-24.4,0-41.1,17.9-45.6,44.4H619.8z"/>
	<path d="M742.3,437.5l45.2,151.9l44-151.9h67.2l45.2,151.9l44.4-151.9h68.8l-80.2,219.4h-69.6L864,517.7l-43.2,139.2h-70
		l-80.2-219.4H742.3z"/>
</g>
<g>
	<path class="st0" d="M1264,54.7c-30.6,79-61.1,158-91.8,237c-3.2,8.2-7.1,16.2-11.2,24c-2.1,3.9-4.9,7.6-8.1,10.8
		c-7.7,7.8-17.9,9.1-27,3c-4.8-3.2-9.3-7.2-13.3-11.4c-3.1-3.2-5.9-4.4-10.5-4c-17.1,1.4-34.3,2.4-51.5,3.5
		c-22.1,1.4-44.1,2.9-66.2,4.2c-6.5,0.4-10.8-2.1-13-7c-2.1-4.9-0.9-9.7,3.7-14.3c19.2-19.2,38.3-38.3,57.5-57.5
		c0.7-0.7,1.7-1.3,3.3-2.6c-1.6-1.1-2.6-1.6-3.5-2.4c-17.8-17.8-35.7-35.5-53.3-53.5c-4.9-5.1-9.5-10.7-13.3-16.6
		c-2.4-3.7-4-8.4-4.7-12.8c-1.1-7.9,2-14.9,8.7-19.2c6.6-4.2,13.6-8,20.9-10.8c73.7-28.9,147.5-57.7,221.3-86.3
		c8.6-3.3,17.7-5.7,26.7-8c3.6-0.9,7.7-0.7,11.4-0.2c6.9,1,11,5.7,13.7,11.8C1264,46.6,1264,50.6,1264,54.7z M1085.8,291.4
		c-1.1-1.2-1.8-2-2.4-2.6c-3.9-3.9-7.9-7.7-11.6-11.7c-6.4-6.9-3.1-17.7,5.9-19.7c4.6-1.1,8.4,0.6,11.7,3.9
		c13.8,13.8,27.5,27.7,41.3,41.5c2,2,4.2,3.9,6.5,6.1c1-1.6,2-2.7,2.7-4.1c3.3-6.8,6.9-13.5,9.7-20.6c29-73.8,57.8-147.6,86.6-221.5
		c0.9-2.4,1.8-4.8,2.8-7.6c-1.2,0.2-1.9,0.3-2.6,0.5c-5.1,1.7-10.3,3.2-15.3,5.1c-63.6,24.7-127.2,49.6-190.7,74.4
		c-13.4,5.2-26.8,10.6-40.1,15.9c-1.8,0.7-3.4,1.9-5.9,3.2c21.1,25.1,45.4,46.2,67.7,69.9c1-1.2,1.7-2.2,2.5-3
		c34.3-34.3,68.5-68.5,102.8-102.8c1-1,2-2.1,3.2-2.9c6.9-4.9,16.6-1.3,18.4,7c1.1,5-1,8.9-4.5,12.4
		c-52.9,52.8-105.7,105.6-158.5,158.5c-0.8,0.8-1.5,1.6-2.7,2.9C1037.7,294.6,1061.4,293,1085.8,291.4z"/>
	<path class="st0" d="M920.2,287.7c2.3-3.1,4.2-6.6,6.9-9.3c16.4-16.6,32.9-33.1,49.5-49.6c6.3-6.2,15.9-4.7,19.5,2.9
		c2.2,4.7,1.2,9.9-2.9,14c-14.4,14.4-28.8,28.8-43.2,43.2c-3,3-5.9,6-9,9c-7.1,6.9-17.2,4.4-20.3-5.1c-0.1-0.4-0.3-0.7-0.5-1
		C920.2,290.4,920.2,289.1,920.2,287.7z"/>
	<path class="st0" d="M1010.2,382.9c-6.8-3.5-9.6-8.1-8.1-14.1c0.6-2.2,1.9-4.5,3.4-6.1c4.9-5.3,10.1-10.3,15.2-15.3
		c5.1-5,12.5-5.1,17.2-0.3c4.6,4.7,4.5,12-0.5,17c-5,5.1-10,10.1-15.1,15c-1.6,1.5-3.6,2.5-5.4,3.8
		C1014.8,382.9,1012.5,382.9,1010.2,382.9z"/>
</g>
</svg>
